<?xml version="1.0" encoding="UTF-8" standalone="no"?>
<!-- Created with Inkscape (http://www.inkscape.org/) -->

<svg
   xmlns:dc="http://purl.org/dc/elements/1.1/"
   xmlns:cc="http://creativecommons.org/ns#"
   xmlns:rdf="http://www.w3.org/1999/02/22-rdf-syntax-ns#"
   xmlns:svg="http://www.w3.org/2000/svg"
   xmlns="http://www.w3.org/2000/svg"
   xmlns:sodipodi="http://sodipodi.sourceforge.net/DTD/sodipodi-0.dtd"
   xmlns:inkscape="http://www.inkscape.org/namespaces/inkscape"
   id="svg2"
   version="1.1"
   inkscape:version="0.91 r13725"
   xml:space="preserve"
   width="222.71555"
   height="202.16806"
   viewBox="0 0 222.71555 202.16806"
   sodipodi:docname="2016-12-21_neural_network.svg"><metadata
     id="metadata8"><rdf:RDF><cc:Work
         rdf:about=""><dc:format>image/svg+xml</dc:format><dc:type
           rdf:resource="http://purl.org/dc/dcmitype/StillImage" /><dc:title></dc:title></cc:Work></rdf:RDF></metadata><defs
     id="defs6" /><sodipodi:namedview
     pagecolor="#ffffff"
     bordercolor="#666666"
     borderopacity="1"
     objecttolerance="10"
     gridtolerance="10"
     guidetolerance="10"
     inkscape:pageopacity="0"
     inkscape:pageshadow="2"
     inkscape:window-width="640"
     inkscape:window-height="480"
     id="namedview4"
     showgrid="false"
     inkscape:zoom="1.1673456"
     inkscape:cx="111.35777"
     inkscape:cy="101.08403"
     inkscape:window-x="65"
     inkscape:window-y="24"
     inkscape:window-maximized="0"
     inkscape:current-layer="g10" /><g
     id="g10"
     inkscape:groupmode="layer"
     inkscape:label="2016-12-21_neural_network"
     transform="matrix(1.25,0,0,-1.25,0,202.16806)"><g
       id="g12"><path
         d="m 27.199,93.707 c 0,4.68 -3.793,8.469 -8.469,8.469 -4.675,0 -8.468,-3.789 -8.468,-8.469 0,-4.676 3.793,-8.469 8.468,-8.469 4.676,0 8.469,3.793 8.469,8.469 z"
         style="fill:#ffffff;fill-opacity:1;fill-rule:nonzero;stroke:#000000;stroke-width:0.3985;stroke-linecap:butt;stroke-linejoin:miter;stroke-miterlimit:10;stroke-dasharray:none;stroke-opacity:1"
         id="path14"
         inkscape:connector-curvature="0" /><path
         d="m 27.199,65.359 c 0,4.68 -3.793,8.469 -8.469,8.469 -4.675,0 -8.468,-3.789 -8.468,-8.469 0,-4.675 3.793,-8.464 8.468,-8.464 4.676,0 8.469,3.789 8.469,8.464 z"
         style="fill:#ffffff;fill-opacity:1;fill-rule:nonzero;stroke:#000000;stroke-width:0.3985;stroke-linecap:butt;stroke-linejoin:miter;stroke-miterlimit:10;stroke-dasharray:none;stroke-opacity:1"
         id="path16"
         inkscape:connector-curvature="0" /><path
         d="m 27.199,37.016 c 0,4.675 -3.793,8.468 -8.469,8.468 -4.675,0 -8.468,-3.793 -8.468,-8.468 0,-4.68 3.793,-8.469 8.468,-8.469 4.676,0 8.469,3.789 8.469,8.469 z"
         style="fill:#ffffff;fill-opacity:1;fill-rule:nonzero;stroke:#000000;stroke-width:0.3985;stroke-linecap:butt;stroke-linejoin:miter;stroke-miterlimit:10;stroke-dasharray:none;stroke-opacity:1"
         id="path18"
         inkscape:connector-curvature="0" /><path
         d="m 98.066,122.055 c 0,4.676 -3.793,8.469 -8.468,8.469 -4.676,0 -8.469,-3.793 -8.469,-8.469 0,-4.676 3.793,-8.469 8.469,-8.469 4.675,0 8.468,3.793 8.468,8.469 z"
         style="fill:#ffffff;fill-opacity:1;fill-rule:nonzero;stroke:#000000;stroke-width:0.3985;stroke-linecap:butt;stroke-linejoin:miter;stroke-miterlimit:10;stroke-dasharray:none;stroke-opacity:1"
         id="path20"
         inkscape:connector-curvature="0" /><path
         d="m 98.066,93.707 c 0,4.68 -3.793,8.469 -8.468,8.469 -4.676,0 -8.469,-3.789 -8.469,-8.469 0,-4.676 3.793,-8.469 8.469,-8.469 4.675,0 8.468,3.793 8.468,8.469 z"
         style="fill:#ffffff;fill-opacity:1;fill-rule:nonzero;stroke:#000000;stroke-width:0.3985;stroke-linecap:butt;stroke-linejoin:miter;stroke-miterlimit:10;stroke-dasharray:none;stroke-opacity:1"
         id="path22"
         inkscape:connector-curvature="0" /><path
         d="m 98.066,65.359 c 0,4.68 -3.793,8.469 -8.468,8.469 -4.676,0 -8.469,-3.789 -8.469,-8.469 0,-4.675 3.793,-8.464 8.469,-8.464 4.675,0 8.468,3.789 8.468,8.464 z"
         style="fill:#ffffff;fill-opacity:1;fill-rule:nonzero;stroke:#000000;stroke-width:0.3985;stroke-linecap:butt;stroke-linejoin:miter;stroke-miterlimit:10;stroke-dasharray:none;stroke-opacity:1"
         id="path24"
         inkscape:connector-curvature="0" /><path
         d="m 98.066,37.016 c 0,4.675 -3.793,8.468 -8.468,8.468 -4.676,0 -8.469,-3.793 -8.469,-8.468 0,-4.68 3.793,-8.469 8.469,-8.469 4.675,0 8.468,3.789 8.468,8.469 z"
         style="fill:#ffffff;fill-opacity:1;fill-rule:nonzero;stroke:#000000;stroke-width:0.3985;stroke-linecap:butt;stroke-linejoin:miter;stroke-miterlimit:10;stroke-dasharray:none;stroke-opacity:1"
         id="path26"
         inkscape:connector-curvature="0" /><path
         d="m 98.066,8.668 c 0,4.676 -3.793,8.469 -8.468,8.469 -4.676,0 -8.469,-3.793 -8.469,-8.469 0,-4.676 3.793,-8.469 8.469,-8.469 4.675,0 8.468,3.793 8.468,8.469 z"
         style="fill:#ffffff;fill-opacity:1;fill-rule:nonzero;stroke:#000000;stroke-width:0.3985;stroke-linecap:butt;stroke-linejoin:miter;stroke-miterlimit:10;stroke-dasharray:none;stroke-opacity:1"
         id="path28"
         inkscape:connector-curvature="0" /><path
         d="m 168.934,65.359 c 0,4.68 -3.793,8.469 -8.469,8.469 -4.676,0 -8.469,-3.789 -8.469,-8.469 0,-4.675 3.793,-8.464 8.469,-8.464 4.676,0 8.469,3.789 8.469,8.464 z"
         style="fill:#ffffff;fill-opacity:1;fill-rule:nonzero;stroke:#000000;stroke-width:0.3985;stroke-linecap:butt;stroke-linejoin:miter;stroke-miterlimit:10;stroke-dasharray:none;stroke-opacity:1"
         id="path30"
         inkscape:connector-curvature="0" /><path
         d="m 27.398,93.707 52.079,0"
         style="fill:none;stroke:#808080;stroke-width:0.3985;stroke-linecap:butt;stroke-linejoin:miter;stroke-miterlimit:10;stroke-dasharray:none;stroke-opacity:1"
         id="path32"
         inkscape:connector-curvature="0" /><path
         d="m 78.281,95.301 c 0.098,-0.598 1.196,-1.492 1.492,-1.594 -0.296,-0.098 -1.394,-0.996 -1.492,-1.594"
         style="fill:none;stroke:#808080;stroke-width:0.31878999;stroke-linecap:round;stroke-linejoin:round;stroke-miterlimit:10;stroke-dasharray:none;stroke-opacity:1"
         id="path34"
         inkscape:connector-curvature="0" /><path
         d="M 26.777,90.488 80.172,69.133"
         style="fill:none;stroke:#808080;stroke-width:0.3985;stroke-linecap:butt;stroke-linejoin:miter;stroke-miterlimit:10;stroke-dasharray:none;stroke-opacity:1"
         id="path36"
         inkscape:connector-curvature="0" /><g
         id="g38"
         transform="matrix(1,-0.400041,0.400041,1,0,161.73445)"><path
           d="m 99.938,-50.7 c 0.089,-0.555 1.11,-1.388 1.386,-1.481 -0.276,-0.091 -1.295,-0.924 -1.388,-1.481"
           style="fill:none;stroke:#808080;stroke-width:0.29598999;stroke-linecap:round;stroke-linejoin:round;stroke-miterlimit:10;stroke-dasharray:none;stroke-opacity:1"
           id="path40"
           inkscape:connector-curvature="0" /></g><path
         d="M 25.531,88.266 81.66,43.363"
         style="fill:none;stroke:#808080;stroke-width:0.3985;stroke-linecap:butt;stroke-linejoin:miter;stroke-miterlimit:10;stroke-dasharray:none;stroke-opacity:1"
         id="path42"
         inkscape:connector-curvature="0" /><g
         id="g44"
         transform="matrix(1,-0.800056,0.800056,1,0,161.73445)"><path
           d="m 106.599,-31.094 c 0.076,-0.466 0.934,-1.167 1.168,-1.245 -0.234,-0.078 -1.089,-0.777 -1.169,-1.243"
           style="fill:none;stroke:#808080;stroke-width:0.248934;stroke-linecap:round;stroke-linejoin:round;stroke-miterlimit:10;stroke-dasharray:none;stroke-opacity:1"
           id="path46"
           inkscape:connector-curvature="0" /></g><path
         d="M 24.289,87.039 83.105,16.457"
         style="fill:none;stroke:#808080;stroke-width:0.3985;stroke-linecap:butt;stroke-linejoin:miter;stroke-miterlimit:10;stroke-dasharray:none;stroke-opacity:1"
         id="path48"
         inkscape:connector-curvature="0" /><g
         id="g50"
         transform="matrix(0.83337,-1,1,0.83337,0,161.73445)"><path
           d="m 125.687,-21.178 c 0.078,-0.459 0.921,-1.15 1.149,-1.227 -0.227,-0.076 -1.072,-0.766 -1.15,-1.225"
           style="fill:none;stroke:#808080;stroke-width:0.245306;stroke-linecap:round;stroke-linejoin:round;stroke-miterlimit:10;stroke-dasharray:none;stroke-opacity:1"
           id="path52"
           inkscape:connector-curvature="0" /></g><path
         d="M 26.777,68.582 80.172,89.938"
         style="fill:none;stroke:#808080;stroke-width:0.3985;stroke-linecap:butt;stroke-linejoin:miter;stroke-miterlimit:10;stroke-dasharray:none;stroke-opacity:1"
         id="path54"
         inkscape:connector-curvature="0" /><g
         id="g56"
         transform="matrix(1,0.400041,-0.400041,1,0,161.73445)"><path
           d="m 43.241,-88.06 c 0.095,-0.554 1.113,-1.387 1.388,-1.481 -0.275,-0.093 -1.295,-0.923 -1.384,-1.478"
           style="fill:none;stroke:#808080;stroke-width:0.29598999;stroke-linecap:round;stroke-linejoin:round;stroke-miterlimit:10;stroke-dasharray:none;stroke-opacity:1"
           id="path58"
           inkscape:connector-curvature="0" /></g><path
         d="m 27.398,65.359 52.079,0"
         style="fill:none;stroke:#808080;stroke-width:0.3985;stroke-linecap:butt;stroke-linejoin:miter;stroke-miterlimit:10;stroke-dasharray:none;stroke-opacity:1"
         id="path60"
         inkscape:connector-curvature="0" /><path
         d="m 78.281,66.957 c 0.098,-0.598 1.196,-1.496 1.492,-1.598 -0.296,-0.097 -1.394,-0.996 -1.492,-1.593"
         style="fill:none;stroke:#808080;stroke-width:0.31878999;stroke-linecap:round;stroke-linejoin:round;stroke-miterlimit:10;stroke-dasharray:none;stroke-opacity:1"
         id="path62"
         inkscape:connector-curvature="0" /><path
         d="M 26.777,62.141 80.172,40.785"
         style="fill:none;stroke:#808080;stroke-width:0.3985;stroke-linecap:butt;stroke-linejoin:miter;stroke-miterlimit:10;stroke-dasharray:none;stroke-opacity:1"
         id="path64"
         inkscape:connector-curvature="0" /><g
         id="g66"
         transform="matrix(1,-0.400041,0.400041,1,0,161.73445)"><path
           d="m 109.714,-75.137 c 0.089,-0.554 1.109,-1.385 1.386,-1.481 -0.277,-0.091 -1.295,-0.924 -1.39,-1.478"
           style="fill:none;stroke:#808080;stroke-width:0.29598999;stroke-linecap:round;stroke-linejoin:round;stroke-miterlimit:10;stroke-dasharray:none;stroke-opacity:1"
           id="path68"
           inkscape:connector-curvature="0" /></g><path
         d="M 25.531,59.922 81.66,15.016"
         style="fill:none;stroke:#808080;stroke-width:0.3985;stroke-linecap:butt;stroke-linejoin:miter;stroke-miterlimit:10;stroke-dasharray:none;stroke-opacity:1"
         id="path70"
         inkscape:connector-curvature="0" /><g
         id="g72"
         transform="matrix(1,-0.800056,0.800056,1,0,161.73445)"><path
           d="m 120.428,-48.378 c 0.076,-0.466 0.933,-1.167 1.166,-1.243 -0.235,-0.078 -1.089,-0.777 -1.167,-1.246"
           style="fill:none;stroke:#808080;stroke-width:0.248934;stroke-linecap:round;stroke-linejoin:round;stroke-miterlimit:10;stroke-dasharray:none;stroke-opacity:1"
           id="path74"
           inkscape:connector-curvature="0" /></g><path
         d="M 25.531,42.457 81.66,87.359"
         style="fill:none;stroke:#808080;stroke-width:0.3985;stroke-linecap:butt;stroke-linejoin:miter;stroke-miterlimit:10;stroke-dasharray:none;stroke-opacity:1"
         id="path76"
         inkscape:connector-curvature="0" /><g
         id="g78"
         transform="matrix(1,0.800044,-0.800044,1,0,161.73445)"><path
           d="m 12.575,-83.94 c 0.08,-0.466 0.935,-1.165 1.169,-1.243 -0.234,-0.079 -1.092,-0.779 -1.168,-1.246"
           style="fill:none;stroke:#808080;stroke-width:0.248934;stroke-linecap:round;stroke-linejoin:round;stroke-miterlimit:10;stroke-dasharray:none;stroke-opacity:1"
           id="path80"
           inkscape:connector-curvature="0" /></g><path
         d="M 26.777,40.234 80.172,61.59"
         style="fill:none;stroke:#808080;stroke-width:0.3985;stroke-linecap:butt;stroke-linejoin:miter;stroke-miterlimit:10;stroke-dasharray:none;stroke-opacity:1"
         id="path82"
         inkscape:connector-curvature="0" /><g
         id="g84"
         transform="matrix(1,0.400019,-0.400019,1,0,161.73445)"><path
           d="m 33.468,-112.497 c 0.095,-0.554 1.113,-1.387 1.389,-1.478 -0.275,-0.093 -1.296,-0.926 -1.385,-1.481"
           style="fill:none;stroke:#808080;stroke-width:0.29598999;stroke-linecap:round;stroke-linejoin:round;stroke-miterlimit:10;stroke-dasharray:none;stroke-opacity:1"
           id="path86"
           inkscape:connector-curvature="0" /></g><path
         d="m 27.398,37.016 52.079,0"
         style="fill:none;stroke:#808080;stroke-width:0.3985;stroke-linecap:butt;stroke-linejoin:miter;stroke-miterlimit:10;stroke-dasharray:none;stroke-opacity:1"
         id="path88"
         inkscape:connector-curvature="0" /><path
         d="m 78.281,38.609 c 0.098,-0.597 1.196,-1.496 1.492,-1.593 -0.296,-0.102 -1.394,-0.996 -1.492,-1.594"
         style="fill:none;stroke:#808080;stroke-width:0.31878999;stroke-linecap:round;stroke-linejoin:round;stroke-miterlimit:10;stroke-dasharray:none;stroke-opacity:1"
         id="path90"
         inkscape:connector-curvature="0" /><path
         d="M 26.777,33.797 80.172,12.438"
         style="fill:none;stroke:#808080;stroke-width:0.3985;stroke-linecap:butt;stroke-linejoin:miter;stroke-miterlimit:10;stroke-dasharray:none;stroke-opacity:1"
         id="path92"
         inkscape:connector-curvature="0" /><g
         id="g94"
         transform="matrix(1,-0.400041,0.400041,1,0,161.73445)"><path
           d="m 119.489,-99.571 c 0.09,-0.557 1.11,-1.388 1.385,-1.481 -0.275,-0.094 -1.293,-0.927 -1.388,-1.481"
           style="fill:none;stroke:#808080;stroke-width:0.29598999;stroke-linecap:round;stroke-linejoin:round;stroke-miterlimit:10;stroke-dasharray:none;stroke-opacity:1"
           id="path96"
           inkscape:connector-curvature="0" /></g><path
         d="M 96.398,116.613 152.527,71.711"
         style="fill:none;stroke:#808080;stroke-width:0.3985;stroke-linecap:butt;stroke-linejoin:miter;stroke-miterlimit:10;stroke-dasharray:none;stroke-opacity:1"
         id="path98"
         inkscape:connector-curvature="0" /><g
         id="g100"
         transform="matrix(1,-0.800056,0.800056,1,0,161.73445)"><path
           d="m 135.98,20.761 c 0.078,-0.469 0.934,-1.167 1.168,-1.246 -0.234,-0.078 -1.089,-0.777 -1.169,-1.243"
           style="fill:none;stroke:#808080;stroke-width:0.248934;stroke-linecap:round;stroke-linejoin:round;stroke-miterlimit:10;stroke-dasharray:none;stroke-opacity:1"
           id="path102"
           inkscape:connector-curvature="0" /></g><path
         d="M 97.645,90.488 151.039,69.133"
         style="fill:none;stroke:#808080;stroke-width:0.3985;stroke-linecap:butt;stroke-linejoin:miter;stroke-miterlimit:10;stroke-dasharray:none;stroke-opacity:1"
         id="path104"
         inkscape:connector-curvature="0" /><g
         id="g106"
         transform="matrix(1,-0.400041,0.400041,1,0,161.73445)"><path
           d="m 161.029,-26.261 c 0.089,-0.555 1.11,-1.388 1.386,-1.481 -0.277,-0.091 -1.295,-0.924 -1.388,-1.481"
           style="fill:none;stroke:#808080;stroke-width:0.29598999;stroke-linecap:round;stroke-linejoin:round;stroke-miterlimit:10;stroke-dasharray:none;stroke-opacity:1"
           id="path108"
           inkscape:connector-curvature="0" /></g><path
         d="m 98.266,65.359 52.078,0"
         style="fill:none;stroke:#808080;stroke-width:0.3985;stroke-linecap:butt;stroke-linejoin:miter;stroke-miterlimit:10;stroke-dasharray:none;stroke-opacity:1"
         id="path110"
         inkscape:connector-curvature="0" /><path
         d="m 149.148,66.957 c 0.098,-0.598 1.196,-1.496 1.493,-1.598 -0.297,-0.097 -1.395,-0.996 -1.493,-1.593"
         style="fill:none;stroke:#808080;stroke-width:0.31878999;stroke-linecap:round;stroke-linejoin:round;stroke-miterlimit:10;stroke-dasharray:none;stroke-opacity:1"
         id="path112"
         inkscape:connector-curvature="0" /><path
         d="M 97.645,40.234 151.039,61.59"
         style="fill:none;stroke:#808080;stroke-width:0.3985;stroke-linecap:butt;stroke-linejoin:miter;stroke-miterlimit:10;stroke-dasharray:none;stroke-opacity:1"
         id="path114"
         inkscape:connector-curvature="0" /><g
         id="g116"
         transform="matrix(1,0.400041,-0.400041,1,0,161.73445)"><path
           d="m 94.556,-136.936 c 0.095,-0.553 1.113,-1.386 1.389,-1.477 -0.275,-0.093 -1.296,-0.927 -1.385,-1.481"
           style="fill:none;stroke:#808080;stroke-width:0.29598999;stroke-linecap:round;stroke-linejoin:round;stroke-miterlimit:10;stroke-dasharray:none;stroke-opacity:1"
           id="path118"
           inkscape:connector-curvature="0" /></g><path
         d="m 96.398,14.109 56.129,44.903"
         style="fill:none;stroke:#808080;stroke-width:0.3985;stroke-linecap:butt;stroke-linejoin:miter;stroke-miterlimit:10;stroke-dasharray:none;stroke-opacity:1"
         id="path120"
         inkscape:connector-curvature="0" /><g
         id="g122"
         transform="matrix(1,0.800056,-0.800056,1,0,161.73445)"><path
           d="m 41.955,-135.793 c 0.08,-0.467 0.935,-1.166 1.169,-1.244 -0.234,-0.078 -1.09,-0.776 -1.168,-1.245"
           style="fill:none;stroke:#808080;stroke-width:0.248934;stroke-linecap:round;stroke-linejoin:round;stroke-miterlimit:10;stroke-dasharray:none;stroke-opacity:1"
           id="path124"
           inkscape:connector-curvature="0" /></g><text
         transform="matrix(1,0,0,-1,73.961104,154.16491)"
         style="font-variant:normal;font-weight:normal;font-size:9.9630003px;font-family:'DejaVu Sans';-inkscape-font-specification:DejaVuSans;writing-mode:lr-tb;fill:#000000;fill-opacity:1;fill-rule:nonzero;stroke:none"
         id="text126"><tspan
           x="0 7.482213 10.241964 15.751503 21.280968 25.70454"
           y="0"
           sodipodi:role="line"
           id="tspan128">Hidden</tspan><tspan
           x="-3.3399961 -0.58024514 4.1222911 9.0938282 13.5174 20.740576 24.626144 30.703575"
           y="11.960004"
           sodipodi:role="line"
           id="tspan130">layer(Z)</tspan><tspan
           x="-67.269997 -63.683315 -58.153851 -52.624386 -47.094921"
           y="-0.059997186"
           sodipodi:role="line"
           id="tspan132">Input</tspan><tspan
           x="-74.900002 -72.140251 -67.437714 -62.466175 -58.042606 -50.829391 -46.943821 -39.481537"
           y="11.900006"
           sodipodi:role="line"
           id="tspan134">layer(X)</tspan><tspan
           x="70.449997 78.20121 83.730675 87.596321 93.125786 98.655251"
           y="-0.059997186"
           sodipodi:role="line"
           id="tspan136">Output</tspan><tspan
           x="67.950005 70.709755 75.412285 80.383827 84.807396 92.020607 95.906181 101.14672"
           y="11.900006"
           sodipodi:role="line"
           id="tspan138">layer(y)</tspan></text>
</g></g></svg>