<?xml version="1.0" encoding="UTF-8"?>
<svg xmlns="http://www.w3.org/2000/svg" xmlns:xlink="http://www.w3.org/1999/xlink" width="504pt" height="504pt" viewBox="0 0 504 504" version="1.1">
<g id="surface1">
<rect x="0" y="0" width="504" height="504" style="fill:rgb(100%,100%,100%);fill-opacity:1;stroke:none;"/>
<path style="fill-rule:nonzero;fill:rgb(0%,0%,0%);fill-opacity:1;stroke-width:0.75;stroke-linecap:round;stroke-linejoin:round;stroke:rgb(0%,0%,0%);stroke-opacity:1;stroke-miterlimit:10;" d="M 251.578125 224.632812 C 251.578125 226.433594 248.878906 226.433594 248.878906 224.632812 C 248.878906 222.832031 251.578125 222.832031 251.578125 224.632812 "/>
<path style="fill-rule:nonzero;fill:rgb(0%,0%,0%);fill-opacity:1;stroke-width:0.75;stroke-linecap:round;stroke-linejoin:round;stroke:rgb(0%,0%,0%);stroke-opacity:1;stroke-miterlimit:10;" d="M 273.433594 239.265625 C 273.433594 241.0625 270.734375 241.0625 270.734375 239.265625 C 270.734375 237.464844 273.433594 237.464844 273.433594 239.265625 "/>
<path style="fill-rule:nonzero;fill:rgb(0%,0%,0%);fill-opacity:1;stroke-width:0.75;stroke-linecap:round;stroke-linejoin:round;stroke:rgb(0%,0%,0%);stroke-opacity:1;stroke-miterlimit:10;" d="M 266.832031 216.082031 C 266.832031 217.878906 264.132812 217.878906 264.132812 216.082031 C 264.132812 214.28125 266.832031 214.28125 266.832031 216.082031 "/>
<path style="fill-rule:nonzero;fill:rgb(0%,0%,0%);fill-opacity:1;stroke-width:0.75;stroke-linecap:round;stroke-linejoin:round;stroke:rgb(0%,0%,0%);stroke-opacity:1;stroke-miterlimit:10;" d="M 261.589844 224.585938 C 261.589844 226.386719 258.890625 226.386719 258.890625 224.585938 C 258.890625 222.785156 261.589844 222.785156 261.589844 224.585938 "/>
<path style="fill-rule:nonzero;fill:rgb(0%,0%,0%);fill-opacity:1;stroke-width:0.75;stroke-linecap:round;stroke-linejoin:round;stroke:rgb(0%,0%,0%);stroke-opacity:1;stroke-miterlimit:10;" d="M 266.992188 210.878906 C 266.992188 212.679688 264.289062 212.679688 264.289062 210.878906 C 264.289062 209.078125 266.992188 209.078125 266.992188 210.878906 "/>
<path style="fill-rule:nonzero;fill:rgb(0%,0%,0%);fill-opacity:1;stroke-width:0.75;stroke-linecap:round;stroke-linejoin:round;stroke:rgb(0%,0%,0%);stroke-opacity:1;stroke-miterlimit:10;" d="M 243.230469 217.96875 C 243.230469 219.765625 240.53125 219.765625 240.53125 217.96875 C 240.53125 216.167969 243.230469 216.167969 243.230469 217.96875 "/>
<path style="fill-rule:nonzero;fill:rgb(0%,0%,0%);fill-opacity:1;stroke-width:0.75;stroke-linecap:round;stroke-linejoin:round;stroke:rgb(0%,0%,0%);stroke-opacity:1;stroke-miterlimit:10;" d="M 281.910156 236.976562 C 281.910156 238.777344 279.210938 238.777344 279.210938 236.976562 C 279.210938 235.175781 281.910156 235.175781 281.910156 236.976562 "/>
<path style="fill-rule:nonzero;fill:rgb(0%,0%,0%);fill-opacity:1;stroke-width:0.75;stroke-linecap:round;stroke-linejoin:round;stroke:rgb(0%,0%,0%);stroke-opacity:1;stroke-miterlimit:10;" d="M 251.617188 210.636719 C 251.617188 212.4375 248.914062 212.4375 248.914062 210.636719 C 248.914062 208.835938 251.617188 208.835938 251.617188 210.636719 "/>
<path style="fill-rule:nonzero;fill:rgb(0%,0%,0%);fill-opacity:1;stroke-width:0.75;stroke-linecap:round;stroke-linejoin:round;stroke:rgb(0%,0%,0%);stroke-opacity:1;stroke-miterlimit:10;" d="M 245.429688 243.429688 C 245.429688 245.230469 242.730469 245.230469 242.730469 243.429688 C 242.730469 241.628906 245.429688 241.628906 245.429688 243.429688 "/>
<path style="fill-rule:nonzero;fill:rgb(0%,0%,0%);fill-opacity:1;stroke-width:0.75;stroke-linecap:round;stroke-linejoin:round;stroke:rgb(0%,0%,0%);stroke-opacity:1;stroke-miterlimit:10;" d="M 278.703125 239.175781 C 278.703125 240.976562 276.003906 240.976562 276.003906 239.175781 C 276.003906 237.375 278.703125 237.375 278.703125 239.175781 "/>
<path style="fill-rule:nonzero;fill:rgb(0%,0%,0%);fill-opacity:1;stroke-width:0.75;stroke-linecap:round;stroke-linejoin:round;stroke:rgb(0%,0%,0%);stroke-opacity:1;stroke-miterlimit:10;" d="M 277.621094 215.394531 C 277.621094 217.195312 274.921875 217.195312 274.921875 215.394531 C 274.921875 213.59375 277.621094 213.59375 277.621094 215.394531 "/>
<path style="fill-rule:nonzero;fill:rgb(0%,0%,0%);fill-opacity:1;stroke-width:0.75;stroke-linecap:round;stroke-linejoin:round;stroke:rgb(0%,0%,0%);stroke-opacity:1;stroke-miterlimit:10;" d="M 253.992188 233.605469 C 253.992188 235.40625 251.292969 235.40625 251.292969 233.605469 C 251.292969 231.804688 253.992188 231.804688 253.992188 233.605469 "/>
<path style="fill-rule:nonzero;fill:rgb(0%,0%,0%);fill-opacity:1;stroke-width:0.75;stroke-linecap:round;stroke-linejoin:round;stroke:rgb(0%,0%,0%);stroke-opacity:1;stroke-miterlimit:10;" d="M 262.605469 238.929688 C 262.605469 240.730469 259.90625 240.730469 259.90625 238.929688 C 259.90625 237.128906 262.605469 237.128906 262.605469 238.929688 "/>
<path style="fill-rule:nonzero;fill:rgb(0%,0%,0%);fill-opacity:1;stroke-width:0.75;stroke-linecap:round;stroke-linejoin:round;stroke:rgb(0%,0%,0%);stroke-opacity:1;stroke-miterlimit:10;" d="M 262.25 233.449219 C 262.25 235.25 259.550781 235.25 259.550781 233.449219 C 259.550781 231.652344 262.25 231.652344 262.25 233.449219 "/>
<path style="fill-rule:nonzero;fill:rgb(0%,0%,0%);fill-opacity:1;stroke-width:0.75;stroke-linecap:round;stroke-linejoin:round;stroke:rgb(0%,0%,0%);stroke-opacity:1;stroke-miterlimit:10;" d="M 281.355469 237.929688 C 281.355469 239.730469 278.652344 239.730469 278.652344 237.929688 C 278.652344 236.128906 281.355469 236.128906 281.355469 237.929688 "/>
<path style="fill-rule:nonzero;fill:rgb(0%,0%,0%);fill-opacity:1;stroke-width:0.75;stroke-linecap:round;stroke-linejoin:round;stroke:rgb(0%,0%,0%);stroke-opacity:1;stroke-miterlimit:10;" d="M 272.175781 229.953125 C 272.175781 231.753906 269.476562 231.753906 269.476562 229.953125 C 269.476562 228.15625 272.175781 228.15625 272.175781 229.953125 "/>
<path style="fill-rule:nonzero;fill:rgb(0%,0%,0%);fill-opacity:1;stroke-width:0.75;stroke-linecap:round;stroke-linejoin:round;stroke:rgb(0%,0%,0%);stroke-opacity:1;stroke-miterlimit:10;" d="M 263.871094 244.878906 C 263.871094 246.679688 261.171875 246.679688 261.171875 244.878906 C 261.171875 243.078125 263.871094 243.078125 263.871094 244.878906 "/>
<path style="fill-rule:nonzero;fill:rgb(0%,0%,0%);fill-opacity:1;stroke-width:0.75;stroke-linecap:round;stroke-linejoin:round;stroke:rgb(0%,0%,0%);stroke-opacity:1;stroke-miterlimit:10;" d="M 248.832031 238.0625 C 248.832031 239.863281 246.132812 239.863281 246.132812 238.0625 C 246.132812 236.261719 248.832031 236.261719 248.832031 238.0625 "/>
<path style="fill-rule:nonzero;fill:rgb(0%,0%,0%);fill-opacity:1;stroke-width:0.75;stroke-linecap:round;stroke-linejoin:round;stroke:rgb(0%,0%,0%);stroke-opacity:1;stroke-miterlimit:10;" d="M 270.609375 235.988281 C 270.609375 237.789062 267.910156 237.789062 267.910156 235.988281 C 267.910156 234.1875 270.609375 234.1875 270.609375 235.988281 "/>
<path style="fill-rule:nonzero;fill:rgb(0%,0%,0%);fill-opacity:1;stroke-width:0.75;stroke-linecap:round;stroke-linejoin:round;stroke:rgb(0%,0%,0%);stroke-opacity:1;stroke-miterlimit:10;" d="M 277.753906 238.449219 C 277.753906 240.25 275.050781 240.25 275.050781 238.449219 C 275.050781 236.648438 277.753906 236.648438 277.753906 238.449219 "/>
<path style="fill-rule:nonzero;fill:rgb(0%,0%,0%);fill-opacity:1;stroke-width:0.75;stroke-linecap:round;stroke-linejoin:round;stroke:rgb(0%,0%,0%);stroke-opacity:1;stroke-miterlimit:10;" d="M 253.945312 228.988281 C 253.945312 230.789062 251.242188 230.789062 251.242188 228.988281 C 251.242188 227.1875 253.945312 227.1875 253.945312 228.988281 "/>
<path style="fill-rule:nonzero;fill:rgb(0%,0%,0%);fill-opacity:1;stroke-width:0.75;stroke-linecap:round;stroke-linejoin:round;stroke:rgb(0%,0%,0%);stroke-opacity:1;stroke-miterlimit:10;" d="M 238.746094 251.320312 C 238.746094 253.121094 236.046875 253.121094 236.046875 251.320312 C 236.046875 249.523438 238.746094 249.523438 238.746094 251.320312 "/>
<path style="fill-rule:nonzero;fill:rgb(0%,0%,0%);fill-opacity:1;stroke-width:0.75;stroke-linecap:round;stroke-linejoin:round;stroke:rgb(0%,0%,0%);stroke-opacity:1;stroke-miterlimit:10;" d="M 244.835938 242.855469 C 244.835938 244.65625 242.136719 244.65625 242.136719 242.855469 C 242.136719 241.058594 244.835938 241.058594 244.835938 242.855469 "/>
<path style="fill-rule:nonzero;fill:rgb(0%,0%,0%);fill-opacity:1;stroke-width:0.75;stroke-linecap:round;stroke-linejoin:round;stroke:rgb(0%,0%,0%);stroke-opacity:1;stroke-miterlimit:10;" d="M 244.253906 236.457031 C 244.253906 238.257812 241.554688 238.257812 241.554688 236.457031 C 241.554688 234.65625 244.253906 234.65625 244.253906 236.457031 "/>
<path style="fill-rule:nonzero;fill:rgb(0%,0%,0%);fill-opacity:1;stroke-width:0.75;stroke-linecap:round;stroke-linejoin:round;stroke:rgb(0%,0%,0%);stroke-opacity:1;stroke-miterlimit:10;" d="M 236.910156 246.277344 C 236.910156 248.078125 234.210938 248.078125 234.210938 246.277344 C 234.210938 244.476562 236.910156 244.476562 236.910156 246.277344 "/>
<path style="fill-rule:nonzero;fill:rgb(0%,0%,0%);fill-opacity:1;stroke-width:0.75;stroke-linecap:round;stroke-linejoin:round;stroke:rgb(0%,0%,0%);stroke-opacity:1;stroke-miterlimit:10;" d="M 251.589844 262.371094 C 251.589844 264.171875 248.886719 264.171875 248.886719 262.371094 C 248.886719 260.570312 251.589844 260.570312 251.589844 262.371094 "/>
<path style="fill-rule:nonzero;fill:rgb(0%,0%,0%);fill-opacity:1;stroke-width:0.75;stroke-linecap:round;stroke-linejoin:round;stroke:rgb(0%,0%,0%);stroke-opacity:1;stroke-miterlimit:10;" d="M 233.808594 251.132812 C 233.808594 252.933594 231.109375 252.933594 231.109375 251.132812 C 231.109375 249.332031 233.808594 249.332031 233.808594 251.132812 "/>
<path style="fill-rule:nonzero;fill:rgb(0%,0%,0%);fill-opacity:1;stroke-width:0.75;stroke-linecap:round;stroke-linejoin:round;stroke:rgb(0%,0%,0%);stroke-opacity:1;stroke-miterlimit:10;" d="M 259.878906 260.777344 C 259.878906 262.578125 257.179688 262.578125 257.179688 260.777344 C 257.179688 258.980469 259.878906 258.980469 259.878906 260.777344 "/>
<path style="fill-rule:nonzero;fill:rgb(0%,0%,0%);fill-opacity:1;stroke-width:0.75;stroke-linecap:round;stroke-linejoin:round;stroke:rgb(0%,0%,0%);stroke-opacity:1;stroke-miterlimit:10;" d="M 230.914062 249.523438 C 230.914062 251.324219 228.214844 251.324219 228.214844 249.523438 C 228.214844 247.722656 230.914062 247.722656 230.914062 249.523438 "/>
<path style="fill-rule:nonzero;fill:rgb(0%,0%,0%);fill-opacity:1;stroke-width:0.75;stroke-linecap:round;stroke-linejoin:round;stroke:rgb(0%,0%,0%);stroke-opacity:1;stroke-miterlimit:10;" d="M 222.371094 244.496094 C 222.371094 246.296875 219.671875 246.296875 219.671875 244.496094 C 219.671875 242.695312 222.371094 242.695312 222.371094 244.496094 "/>
<path style="fill-rule:nonzero;fill:rgb(0%,0%,0%);fill-opacity:1;stroke-width:0.75;stroke-linecap:round;stroke-linejoin:round;stroke:rgb(0%,0%,0%);stroke-opacity:1;stroke-miterlimit:10;" d="M 234.492188 241.457031 C 234.492188 243.257812 231.792969 243.257812 231.792969 241.457031 C 231.792969 239.65625 234.492188 239.65625 234.492188 241.457031 "/>
<path style="fill-rule:nonzero;fill:rgb(0%,0%,0%);fill-opacity:1;stroke-width:0.75;stroke-linecap:round;stroke-linejoin:round;stroke:rgb(0%,0%,0%);stroke-opacity:1;stroke-miterlimit:10;" d="M 223.054688 232.554688 C 223.054688 234.355469 220.355469 234.355469 220.355469 232.554688 C 220.355469 230.757812 223.054688 230.757812 223.054688 232.554688 "/>
<path style="fill-rule:nonzero;fill:rgb(0%,0%,0%);fill-opacity:1;stroke-width:0.75;stroke-linecap:round;stroke-linejoin:round;stroke:rgb(0%,0%,0%);stroke-opacity:1;stroke-miterlimit:10;" d="M 234.679688 259.496094 C 234.679688 261.292969 231.980469 261.292969 231.980469 259.496094 C 231.980469 257.695312 234.679688 257.695312 234.679688 259.496094 "/>
<path style="fill-rule:nonzero;fill:rgb(0%,0%,0%);fill-opacity:1;stroke-width:0.75;stroke-linecap:round;stroke-linejoin:round;stroke:rgb(0%,0%,0%);stroke-opacity:1;stroke-miterlimit:10;" d="M 218.097656 235.429688 C 218.097656 237.230469 215.394531 237.230469 215.394531 235.429688 C 215.394531 233.632812 218.097656 233.632812 218.097656 235.429688 "/>
<path style="fill-rule:nonzero;fill:rgb(0%,0%,0%);fill-opacity:1;stroke-width:0.75;stroke-linecap:round;stroke-linejoin:round;stroke:rgb(0%,0%,0%);stroke-opacity:1;stroke-miterlimit:10;" d="M 214.042969 231.136719 C 214.042969 232.9375 211.339844 232.9375 211.339844 231.136719 C 211.339844 229.335938 214.042969 229.335938 214.042969 231.136719 "/>
<path style="fill-rule:nonzero;fill:rgb(0%,0%,0%);fill-opacity:1;stroke-width:0.75;stroke-linecap:round;stroke-linejoin:round;stroke:rgb(0%,0%,0%);stroke-opacity:1;stroke-miterlimit:10;" d="M 211.601562 238.628906 C 211.601562 240.425781 208.902344 240.425781 208.902344 238.628906 C 208.902344 236.828125 211.601562 236.828125 211.601562 238.628906 "/>
<path style="fill-rule:nonzero;fill:rgb(0%,0%,0%);fill-opacity:1;stroke-width:0.75;stroke-linecap:round;stroke-linejoin:round;stroke:rgb(0%,0%,0%);stroke-opacity:1;stroke-miterlimit:10;" d="M 203.285156 236.40625 C 203.285156 238.203125 200.585938 238.203125 200.585938 236.40625 C 200.585938 234.605469 203.285156 234.605469 203.285156 236.40625 "/>
<path style="fill-rule:nonzero;fill:rgb(0%,0%,0%);fill-opacity:1;stroke-width:0.75;stroke-linecap:round;stroke-linejoin:round;stroke:rgb(0%,0%,0%);stroke-opacity:1;stroke-miterlimit:10;" d="M 206.335938 252.277344 C 206.335938 254.078125 203.632812 254.078125 203.632812 252.277344 C 203.632812 250.476562 206.335938 250.476562 206.335938 252.277344 "/>
<path style="fill-rule:nonzero;fill:rgb(0%,0%,0%);fill-opacity:1;stroke-width:0.75;stroke-linecap:round;stroke-linejoin:round;stroke:rgb(0%,0%,0%);stroke-opacity:1;stroke-miterlimit:10;" d="M 224.160156 246.375 C 224.160156 248.175781 221.460938 248.175781 221.460938 246.375 C 221.460938 244.574219 224.160156 244.574219 224.160156 246.375 "/>
<path style="fill-rule:nonzero;fill:rgb(0%,0%,0%);fill-opacity:1;stroke-width:0.75;stroke-linecap:round;stroke-linejoin:round;stroke:rgb(0%,0%,0%);stroke-opacity:1;stroke-miterlimit:10;" d="M 206.242188 233.199219 C 206.242188 235 203.542969 235 203.542969 233.199219 C 203.542969 231.398438 206.242188 231.398438 206.242188 233.199219 "/>
<path style="fill-rule:nonzero;fill:rgb(0%,0%,0%);fill-opacity:1;stroke-width:0.75;stroke-linecap:round;stroke-linejoin:round;stroke:rgb(0%,0%,0%);stroke-opacity:1;stroke-miterlimit:10;" d="M 223.09375 238.710938 C 223.09375 240.511719 220.394531 240.511719 220.394531 238.710938 C 220.394531 236.914062 223.09375 236.914062 223.09375 238.710938 "/>
<path style="fill-rule:nonzero;fill:rgb(0%,0%,0%);fill-opacity:1;stroke-width:0.75;stroke-linecap:round;stroke-linejoin:round;stroke:rgb(0%,0%,0%);stroke-opacity:1;stroke-miterlimit:10;" d="M 210.855469 233.71875 C 210.855469 235.519531 208.15625 235.519531 208.15625 233.71875 C 208.15625 231.921875 210.855469 231.921875 210.855469 233.71875 "/>
<path style="fill-rule:nonzero;fill:rgb(0%,0%,0%);fill-opacity:1;stroke-width:0.75;stroke-linecap:round;stroke-linejoin:round;stroke:rgb(0%,0%,0%);stroke-opacity:1;stroke-miterlimit:10;" d="M 217.1875 240.828125 C 217.1875 242.628906 214.484375 242.628906 214.484375 240.828125 C 214.484375 239.027344 217.1875 239.027344 217.1875 240.828125 "/>
<path style="fill-rule:nonzero;fill:rgb(0%,0%,0%);fill-opacity:1;stroke-width:0.75;stroke-linecap:round;stroke-linejoin:round;stroke:rgb(0%,0%,0%);stroke-opacity:1;stroke-miterlimit:10;" d="M 213.671875 212.410156 C 213.671875 214.207031 210.972656 214.207031 210.972656 212.410156 C 210.972656 210.609375 213.671875 210.609375 213.671875 212.410156 "/>
<path style="fill-rule:nonzero;fill:rgb(0%,0%,0%);fill-opacity:1;stroke-width:0.75;stroke-linecap:round;stroke-linejoin:round;stroke:rgb(0%,0%,0%);stroke-opacity:1;stroke-miterlimit:10;" d="M 193.097656 229.8125 C 193.097656 231.613281 190.398438 231.613281 190.398438 229.8125 C 190.398438 228.011719 193.097656 228.011719 193.097656 229.8125 "/>
<path style="fill-rule:nonzero;fill:rgb(0%,0%,0%);fill-opacity:1;stroke-width:0.75;stroke-linecap:round;stroke-linejoin:round;stroke:rgb(0%,0%,0%);stroke-opacity:1;stroke-miterlimit:10;" d="M 188.890625 201.285156 C 188.890625 203.085938 186.1875 203.085938 186.1875 201.285156 C 186.1875 199.484375 188.890625 199.484375 188.890625 201.285156 "/>
<path style="fill-rule:nonzero;fill:rgb(0%,0%,0%);fill-opacity:1;stroke-width:0.75;stroke-linecap:round;stroke-linejoin:round;stroke:rgb(0%,0%,0%);stroke-opacity:1;stroke-miterlimit:10;" d="M 224.140625 226.269531 C 224.140625 228.070312 221.441406 228.070312 221.441406 226.269531 C 221.441406 224.46875 224.140625 224.46875 224.140625 226.269531 "/>
<path style="fill-rule:nonzero;fill:rgb(0%,0%,0%);fill-opacity:1;stroke-width:0.75;stroke-linecap:round;stroke-linejoin:round;stroke:rgb(0%,0%,0%);stroke-opacity:1;stroke-miterlimit:10;" d="M 191.863281 195.570312 C 191.863281 197.371094 189.160156 197.371094 189.160156 195.570312 C 189.160156 193.769531 191.863281 193.769531 191.863281 195.570312 "/>
<path style="fill-rule:nonzero;fill:rgb(0%,0%,0%);fill-opacity:1;stroke-width:0.75;stroke-linecap:round;stroke-linejoin:round;stroke:rgb(0%,0%,0%);stroke-opacity:1;stroke-miterlimit:10;" d="M 194.445312 208.6875 C 194.445312 210.488281 191.746094 210.488281 191.746094 208.6875 C 191.746094 206.886719 194.445312 206.886719 194.445312 208.6875 "/>
<path style="fill-rule:nonzero;fill:rgb(0%,0%,0%);fill-opacity:1;stroke-width:0.75;stroke-linecap:round;stroke-linejoin:round;stroke:rgb(0%,0%,0%);stroke-opacity:1;stroke-miterlimit:10;" d="M 195.617188 209.832031 C 195.617188 211.632812 192.917969 211.632812 192.917969 209.832031 C 192.917969 208.035156 195.617188 208.035156 195.617188 209.832031 "/>
<path style="fill-rule:nonzero;fill:rgb(0%,0%,0%);fill-opacity:1;stroke-width:0.75;stroke-linecap:round;stroke-linejoin:round;stroke:rgb(0%,0%,0%);stroke-opacity:1;stroke-miterlimit:10;" d="M 211.765625 193.546875 C 211.765625 195.347656 209.066406 195.347656 209.066406 193.546875 C 209.066406 191.746094 211.765625 191.746094 211.765625 193.546875 "/>
<path style="fill-rule:nonzero;fill:rgb(0%,0%,0%);fill-opacity:1;stroke-width:0.75;stroke-linecap:round;stroke-linejoin:round;stroke:rgb(0%,0%,0%);stroke-opacity:1;stroke-miterlimit:10;" d="M 197.664062 205.824219 C 197.664062 207.625 194.964844 207.625 194.964844 205.824219 C 194.964844 204.023438 197.664062 204.023438 197.664062 205.824219 "/>
<path style="fill-rule:nonzero;fill:rgb(0%,0%,0%);fill-opacity:1;stroke-width:0.75;stroke-linecap:round;stroke-linejoin:round;stroke:rgb(0%,0%,0%);stroke-opacity:1;stroke-miterlimit:10;" d="M 224.859375 181.425781 C 224.859375 183.222656 222.160156 183.222656 222.160156 181.425781 C 222.160156 179.625 224.859375 179.625 224.859375 181.425781 "/>
<path style="fill-rule:nonzero;fill:rgb(0%,0%,0%);fill-opacity:1;stroke-width:0.75;stroke-linecap:round;stroke-linejoin:round;stroke:rgb(0%,0%,0%);stroke-opacity:1;stroke-miterlimit:10;" d="M 204.820312 179.261719 C 204.820312 181.0625 202.121094 181.0625 202.121094 179.261719 C 202.121094 177.460938 204.820312 177.460938 204.820312 179.261719 "/>
<path style="fill-rule:nonzero;fill:rgb(0%,0%,0%);fill-opacity:1;stroke-width:0.75;stroke-linecap:round;stroke-linejoin:round;stroke:rgb(0%,0%,0%);stroke-opacity:1;stroke-miterlimit:10;" d="M 218.296875 167.746094 C 218.296875 169.546875 215.597656 169.546875 215.597656 167.746094 C 215.597656 165.945312 218.296875 165.945312 218.296875 167.746094 "/>
<path style="fill-rule:nonzero;fill:rgb(0%,0%,0%);fill-opacity:1;stroke-width:0.75;stroke-linecap:round;stroke-linejoin:round;stroke:rgb(0%,0%,0%);stroke-opacity:1;stroke-miterlimit:10;" d="M 212.449219 178.589844 C 212.449219 180.390625 209.746094 180.390625 209.746094 178.589844 C 209.746094 176.789062 212.449219 176.789062 212.449219 178.589844 "/>
<path style="fill-rule:nonzero;fill:rgb(0%,0%,0%);fill-opacity:1;stroke-width:0.75;stroke-linecap:round;stroke-linejoin:round;stroke:rgb(0%,0%,0%);stroke-opacity:1;stroke-miterlimit:10;" d="M 223.046875 178.398438 C 223.046875 180.199219 220.347656 180.199219 220.347656 178.398438 C 220.347656 176.597656 223.046875 176.597656 223.046875 178.398438 "/>
<path style="fill-rule:nonzero;fill:rgb(0%,0%,0%);fill-opacity:1;stroke-width:0.75;stroke-linecap:round;stroke-linejoin:round;stroke:rgb(0%,0%,0%);stroke-opacity:1;stroke-miterlimit:10;" d="M 223.480469 177.796875 C 223.480469 179.597656 220.78125 179.597656 220.78125 177.796875 C 220.78125 175.996094 223.480469 175.996094 223.480469 177.796875 "/>
<path style="fill-rule:nonzero;fill:rgb(0%,0%,0%);fill-opacity:1;stroke-width:0.75;stroke-linecap:round;stroke-linejoin:round;stroke:rgb(0%,0%,0%);stroke-opacity:1;stroke-miterlimit:10;" d="M 251.132812 181.75 C 251.132812 183.550781 248.433594 183.550781 248.433594 181.75 C 248.433594 179.949219 251.132812 179.949219 251.132812 181.75 "/>
<path style="fill-rule:nonzero;fill:rgb(0%,0%,0%);fill-opacity:1;stroke-width:0.75;stroke-linecap:round;stroke-linejoin:round;stroke:rgb(0%,0%,0%);stroke-opacity:1;stroke-miterlimit:10;" d="M 248.496094 155.015625 C 248.496094 156.816406 245.796875 156.816406 245.796875 155.015625 C 245.796875 153.21875 248.496094 153.21875 248.496094 155.015625 "/>
<path style="fill-rule:nonzero;fill:rgb(0%,0%,0%);fill-opacity:1;stroke-width:0.75;stroke-linecap:round;stroke-linejoin:round;stroke:rgb(0%,0%,0%);stroke-opacity:1;stroke-miterlimit:10;" d="M 239.40625 173.367188 C 239.40625 175.167969 236.707031 175.167969 236.707031 173.367188 C 236.707031 171.566406 239.40625 171.566406 239.40625 173.367188 "/>
<path style="fill-rule:nonzero;fill:rgb(0%,0%,0%);fill-opacity:1;stroke-width:0.75;stroke-linecap:round;stroke-linejoin:round;stroke:rgb(0%,0%,0%);stroke-opacity:1;stroke-miterlimit:10;" d="M 229.046875 170.085938 C 229.046875 171.886719 226.347656 171.886719 226.347656 170.085938 C 226.347656 168.285156 229.046875 168.285156 229.046875 170.085938 "/>
<path style="fill-rule:nonzero;fill:rgb(0%,0%,0%);fill-opacity:1;stroke-width:0.75;stroke-linecap:round;stroke-linejoin:round;stroke:rgb(0%,0%,0%);stroke-opacity:1;stroke-miterlimit:10;" d="M 247.726562 160.570312 C 247.726562 162.367188 245.027344 162.367188 245.027344 160.570312 C 245.027344 158.769531 247.726562 158.769531 247.726562 160.570312 "/>
<path style="fill-rule:nonzero;fill:rgb(0%,0%,0%);fill-opacity:1;stroke-width:0.75;stroke-linecap:round;stroke-linejoin:round;stroke:rgb(0%,0%,0%);stroke-opacity:1;stroke-miterlimit:10;" d="M 242.574219 151.625 C 242.574219 153.425781 239.875 153.425781 239.875 151.625 C 239.875 149.824219 242.574219 149.824219 242.574219 151.625 "/>
<path style="fill-rule:nonzero;fill:rgb(0%,0%,0%);fill-opacity:1;stroke-width:0.75;stroke-linecap:round;stroke-linejoin:round;stroke:rgb(0%,0%,0%);stroke-opacity:1;stroke-miterlimit:10;" d="M 267.289062 152.105469 C 267.289062 153.90625 264.589844 153.90625 264.589844 152.105469 C 264.589844 150.308594 267.289062 150.308594 267.289062 152.105469 "/>
<path style="fill-rule:nonzero;fill:rgb(0%,0%,0%);fill-opacity:1;stroke-width:0.75;stroke-linecap:round;stroke-linejoin:round;stroke:rgb(0%,0%,0%);stroke-opacity:1;stroke-miterlimit:10;" d="M 284.441406 173.222656 C 284.441406 175.023438 281.742188 175.023438 281.742188 173.222656 C 281.742188 171.421875 284.441406 171.421875 284.441406 173.222656 "/>
<path style="fill-rule:nonzero;fill:rgb(0%,0%,0%);fill-opacity:1;stroke-width:0.75;stroke-linecap:round;stroke-linejoin:round;stroke:rgb(0%,0%,0%);stroke-opacity:1;stroke-miterlimit:10;" d="M 270.132812 148.089844 C 270.132812 149.890625 267.429688 149.890625 267.429688 148.089844 C 267.429688 146.289062 270.132812 146.289062 270.132812 148.089844 "/>
<path style="fill-rule:nonzero;fill:rgb(0%,0%,0%);fill-opacity:1;stroke-width:0.75;stroke-linecap:round;stroke-linejoin:round;stroke:rgb(0%,0%,0%);stroke-opacity:1;stroke-miterlimit:10;" d="M 278.519531 174.027344 C 278.519531 175.828125 275.820312 175.828125 275.820312 174.027344 C 275.820312 172.226562 278.519531 172.226562 278.519531 174.027344 "/>
<path style="fill-rule:nonzero;fill:rgb(0%,0%,0%);fill-opacity:1;stroke-width:0.75;stroke-linecap:round;stroke-linejoin:round;stroke:rgb(0%,0%,0%);stroke-opacity:1;stroke-miterlimit:10;" d="M 280.714844 163.796875 C 280.714844 165.597656 278.011719 165.597656 278.011719 163.796875 C 278.011719 162 280.714844 162 280.714844 163.796875 "/>
<path style="fill-rule:nonzero;fill:rgb(0%,0%,0%);fill-opacity:1;stroke-width:0.75;stroke-linecap:round;stroke-linejoin:round;stroke:rgb(0%,0%,0%);stroke-opacity:1;stroke-miterlimit:10;" d="M 297.378906 182.570312 C 297.378906 184.367188 294.679688 184.367188 294.679688 182.570312 C 294.679688 180.769531 297.378906 180.769531 297.378906 182.570312 "/>
<path style="fill-rule:nonzero;fill:rgb(0%,0%,0%);fill-opacity:1;stroke-width:0.75;stroke-linecap:round;stroke-linejoin:round;stroke:rgb(0%,0%,0%);stroke-opacity:1;stroke-miterlimit:10;" d="M 299.640625 173.847656 C 299.640625 175.644531 296.941406 175.644531 296.941406 173.847656 C 296.941406 172.046875 299.640625 172.046875 299.640625 173.847656 "/>
<path style="fill-rule:nonzero;fill:rgb(0%,0%,0%);fill-opacity:1;stroke-width:0.75;stroke-linecap:round;stroke-linejoin:round;stroke:rgb(0%,0%,0%);stroke-opacity:1;stroke-miterlimit:10;" d="M 282.796875 184.117188 C 282.796875 185.914062 280.097656 185.914062 280.097656 184.117188 C 280.097656 182.316406 282.796875 182.316406 282.796875 184.117188 "/>
<path style="fill-rule:nonzero;fill:rgb(0%,0%,0%);fill-opacity:1;stroke-width:0.75;stroke-linecap:round;stroke-linejoin:round;stroke:rgb(0%,0%,0%);stroke-opacity:1;stroke-miterlimit:10;" d="M 300.746094 164.890625 C 300.746094 166.691406 298.046875 166.691406 298.046875 164.890625 C 298.046875 163.09375 300.746094 163.09375 300.746094 164.890625 "/>
<path style="fill-rule:nonzero;fill:rgb(0%,0%,0%);fill-opacity:1;stroke-width:0.75;stroke-linecap:round;stroke-linejoin:round;stroke:rgb(0%,0%,0%);stroke-opacity:1;stroke-miterlimit:10;" d="M 318.894531 170.476562 C 318.894531 172.273438 316.195312 172.273438 316.195312 170.476562 C 316.195312 168.675781 318.894531 168.675781 318.894531 170.476562 "/>
<path style="fill-rule:nonzero;fill:rgb(0%,0%,0%);fill-opacity:1;stroke-width:0.75;stroke-linecap:round;stroke-linejoin:round;stroke:rgb(0%,0%,0%);stroke-opacity:1;stroke-miterlimit:10;" d="M 326.769531 181.960938 C 326.769531 183.761719 324.070312 183.761719 324.070312 181.960938 C 324.070312 180.160156 326.769531 180.160156 326.769531 181.960938 "/>
<path style="fill-rule:nonzero;fill:rgb(0%,0%,0%);fill-opacity:1;stroke-width:0.75;stroke-linecap:round;stroke-linejoin:round;stroke:rgb(0%,0%,0%);stroke-opacity:1;stroke-miterlimit:10;" d="M 335.167969 183.3125 C 335.167969 185.113281 332.46875 185.113281 332.46875 183.3125 C 332.46875 181.511719 335.167969 181.511719 335.167969 183.3125 "/>
<path style="fill-rule:nonzero;fill:rgb(0%,0%,0%);fill-opacity:1;stroke-width:0.75;stroke-linecap:round;stroke-linejoin:round;stroke:rgb(0%,0%,0%);stroke-opacity:1;stroke-miterlimit:10;" d="M 318.453125 171.195312 C 318.453125 172.996094 315.753906 172.996094 315.753906 171.195312 C 315.753906 169.394531 318.453125 169.394531 318.453125 171.195312 "/>
<path style="fill-rule:nonzero;fill:rgb(0%,0%,0%);fill-opacity:1;stroke-width:0.75;stroke-linecap:round;stroke-linejoin:round;stroke:rgb(0%,0%,0%);stroke-opacity:1;stroke-miterlimit:10;" d="M 336.523438 177.226562 C 336.523438 179.027344 333.824219 179.027344 333.824219 177.226562 C 333.824219 175.425781 336.523438 175.425781 336.523438 177.226562 "/>
<path style="fill-rule:nonzero;fill:rgb(0%,0%,0%);fill-opacity:1;stroke-width:0.75;stroke-linecap:round;stroke-linejoin:round;stroke:rgb(0%,0%,0%);stroke-opacity:1;stroke-miterlimit:10;" d="M 322.175781 196.914062 C 322.175781 198.714844 319.476562 198.714844 319.476562 196.914062 C 319.476562 195.113281 322.175781 195.113281 322.175781 196.914062 "/>
<path style="fill-rule:nonzero;fill:rgb(0%,0%,0%);fill-opacity:1;stroke-width:0.75;stroke-linecap:round;stroke-linejoin:round;stroke:rgb(0%,0%,0%);stroke-opacity:1;stroke-miterlimit:10;" d="M 332.0625 210.195312 C 332.0625 211.996094 329.363281 211.996094 329.363281 210.195312 C 329.363281 208.398438 332.0625 208.398438 332.0625 210.195312 "/>
<path style="fill-rule:nonzero;fill:rgb(0%,0%,0%);fill-opacity:1;stroke-width:0.75;stroke-linecap:round;stroke-linejoin:round;stroke:rgb(0%,0%,0%);stroke-opacity:1;stroke-miterlimit:10;" d="M 362.160156 199.105469 C 362.160156 200.90625 359.460938 200.90625 359.460938 199.105469 C 359.460938 197.304688 362.160156 197.304688 362.160156 199.105469 "/>
<path style="fill-rule:nonzero;fill:rgb(0%,0%,0%);fill-opacity:1;stroke-width:0.75;stroke-linecap:round;stroke-linejoin:round;stroke:rgb(0%,0%,0%);stroke-opacity:1;stroke-miterlimit:10;" d="M 364.101562 225.382812 C 364.101562 227.183594 361.402344 227.183594 361.402344 225.382812 C 361.402344 223.582031 364.101562 223.582031 364.101562 225.382812 "/>
<path style="fill-rule:nonzero;fill:rgb(0%,0%,0%);fill-opacity:1;stroke-width:0.75;stroke-linecap:round;stroke-linejoin:round;stroke:rgb(0%,0%,0%);stroke-opacity:1;stroke-miterlimit:10;" d="M 364.527344 221.921875 C 364.527344 223.722656 361.824219 223.722656 361.824219 221.921875 C 361.824219 220.121094 364.527344 220.121094 364.527344 221.921875 "/>
<path style="fill-rule:nonzero;fill:rgb(0%,0%,0%);fill-opacity:1;stroke-width:0.75;stroke-linecap:round;stroke-linejoin:round;stroke:rgb(0%,0%,0%);stroke-opacity:1;stroke-miterlimit:10;" d="M 363.570312 230.527344 C 363.570312 232.328125 360.871094 232.328125 360.871094 230.527344 C 360.871094 228.726562 363.570312 228.726562 363.570312 230.527344 "/>
<path style="fill-rule:nonzero;fill:rgb(0%,0%,0%);fill-opacity:1;stroke-width:0.75;stroke-linecap:round;stroke-linejoin:round;stroke:rgb(0%,0%,0%);stroke-opacity:1;stroke-miterlimit:10;" d="M 363.097656 230.253906 C 363.097656 232.054688 360.398438 232.054688 360.398438 230.253906 C 360.398438 228.457031 363.097656 228.457031 363.097656 230.253906 "/>
<path style="fill-rule:nonzero;fill:rgb(0%,0%,0%);fill-opacity:1;stroke-width:0.75;stroke-linecap:round;stroke-linejoin:round;stroke:rgb(0%,0%,0%);stroke-opacity:1;stroke-miterlimit:10;" d="M 365.734375 232.886719 C 365.734375 234.6875 363.035156 234.6875 363.035156 232.886719 C 363.035156 231.089844 365.734375 231.089844 365.734375 232.886719 "/>
<path style="fill-rule:nonzero;fill:rgb(0%,0%,0%);fill-opacity:1;stroke-width:0.75;stroke-linecap:round;stroke-linejoin:round;stroke:rgb(0%,0%,0%);stroke-opacity:1;stroke-miterlimit:10;" d="M 345.527344 239.328125 C 345.527344 241.125 342.828125 241.125 342.828125 239.328125 C 342.828125 237.527344 345.527344 237.527344 345.527344 239.328125 "/>
<path style="fill-rule:nonzero;fill:rgb(0%,0%,0%);fill-opacity:1;stroke-width:0.75;stroke-linecap:round;stroke-linejoin:round;stroke:rgb(0%,0%,0%);stroke-opacity:1;stroke-miterlimit:10;" d="M 349.007812 252.332031 C 349.007812 254.128906 346.308594 254.128906 346.308594 252.332031 C 346.308594 250.53125 349.007812 250.53125 349.007812 252.332031 "/>
<path style="fill-rule:nonzero;fill:rgb(0%,0%,0%);fill-opacity:1;stroke-width:0.75;stroke-linecap:round;stroke-linejoin:round;stroke:rgb(0%,0%,0%);stroke-opacity:1;stroke-miterlimit:10;" d="M 337.148438 241.605469 C 337.148438 243.40625 334.445312 243.40625 334.445312 241.605469 C 334.445312 239.804688 337.148438 239.804688 337.148438 241.605469 "/>
<path style="fill-rule:nonzero;fill:rgb(0%,0%,0%);fill-opacity:1;stroke-width:0.75;stroke-linecap:round;stroke-linejoin:round;stroke:rgb(0%,0%,0%);stroke-opacity:1;stroke-miterlimit:10;" d="M 357.40625 264.46875 C 357.40625 266.269531 354.707031 266.269531 354.707031 264.46875 C 354.707031 262.671875 357.40625 262.671875 357.40625 264.46875 "/>
<path style="fill-rule:nonzero;fill:rgb(0%,0%,0%);fill-opacity:1;stroke-width:0.75;stroke-linecap:round;stroke-linejoin:round;stroke:rgb(0%,0%,0%);stroke-opacity:1;stroke-miterlimit:10;" d="M 351.652344 272.894531 C 351.652344 274.695312 348.953125 274.695312 348.953125 272.894531 C 348.953125 271.09375 351.652344 271.09375 351.652344 272.894531 "/>
<path style="fill-rule:nonzero;fill:rgb(0%,0%,0%);fill-opacity:1;stroke-width:0.75;stroke-linecap:round;stroke-linejoin:round;stroke:rgb(0%,0%,0%);stroke-opacity:1;stroke-miterlimit:10;" d="M 337.597656 251.617188 C 337.597656 253.417969 334.898438 253.417969 334.898438 251.617188 C 334.898438 249.820312 337.597656 249.820312 337.597656 251.617188 "/>
<path style="fill-rule:nonzero;fill:rgb(0%,0%,0%);fill-opacity:1;stroke-width:0.75;stroke-linecap:round;stroke-linejoin:round;stroke:rgb(0%,0%,0%);stroke-opacity:1;stroke-miterlimit:10;" d="M 346.648438 286.59375 C 346.648438 288.394531 343.949219 288.394531 343.949219 286.59375 C 343.949219 284.792969 346.648438 284.792969 346.648438 286.59375 "/>
<path style="fill-rule:nonzero;fill:rgb(0%,0%,0%);fill-opacity:1;stroke-width:0.75;stroke-linecap:round;stroke-linejoin:round;stroke:rgb(0%,0%,0%);stroke-opacity:1;stroke-miterlimit:10;" d="M 355.554688 268.449219 C 355.554688 270.25 352.855469 270.25 352.855469 268.449219 C 352.855469 266.652344 355.554688 266.652344 355.554688 268.449219 "/>
<path style="fill-rule:nonzero;fill:rgb(0%,0%,0%);fill-opacity:1;stroke-width:0.75;stroke-linecap:round;stroke-linejoin:round;stroke:rgb(0%,0%,0%);stroke-opacity:1;stroke-miterlimit:10;" d="M 326.933594 280.785156 C 326.933594 282.585938 324.234375 282.585938 324.234375 280.785156 C 324.234375 278.988281 326.933594 278.988281 326.933594 280.785156 "/>
<path style="fill-rule:nonzero;fill:rgb(0%,0%,0%);fill-opacity:1;stroke-width:0.75;stroke-linecap:round;stroke-linejoin:round;stroke:rgb(0%,0%,0%);stroke-opacity:1;stroke-miterlimit:10;" d="M 341.523438 301.320312 C 341.523438 303.121094 338.824219 303.121094 338.824219 301.320312 C 338.824219 299.519531 341.523438 299.519531 341.523438 301.320312 "/>
<path style="fill-rule:nonzero;fill:rgb(0%,0%,0%);fill-opacity:1;stroke-width:0.75;stroke-linecap:round;stroke-linejoin:round;stroke:rgb(0%,0%,0%);stroke-opacity:1;stroke-miterlimit:10;" d="M 341.695312 298.871094 C 341.695312 300.667969 338.996094 300.667969 338.996094 298.871094 C 338.996094 297.070312 341.695312 297.070312 341.695312 298.871094 "/>
<path style="fill-rule:nonzero;fill:rgb(0%,0%,0%);fill-opacity:1;stroke-width:0.75;stroke-linecap:round;stroke-linejoin:round;stroke:rgb(0%,0%,0%);stroke-opacity:1;stroke-miterlimit:10;" d="M 304.628906 311.324219 C 304.628906 313.125 301.925781 313.125 301.925781 311.324219 C 301.925781 309.523438 304.628906 309.523438 304.628906 311.324219 "/>
<path style="fill-rule:nonzero;fill:rgb(0%,0%,0%);fill-opacity:1;stroke-width:0.75;stroke-linecap:round;stroke-linejoin:round;stroke:rgb(0%,0%,0%);stroke-opacity:1;stroke-miterlimit:10;" d="M 289.335938 291.5625 C 289.335938 293.363281 286.636719 293.363281 286.636719 291.5625 C 286.636719 289.761719 289.335938 289.761719 289.335938 291.5625 "/>
<path style="fill-rule:nonzero;fill:rgb(0%,0%,0%);fill-opacity:1;stroke-width:0.75;stroke-linecap:round;stroke-linejoin:round;stroke:rgb(0%,0%,0%);stroke-opacity:1;stroke-miterlimit:10;" d="M 311.792969 323.535156 C 311.792969 325.335938 309.089844 325.335938 309.089844 323.535156 C 309.089844 321.738281 311.792969 321.738281 311.792969 323.535156 "/>
<path style="fill-rule:nonzero;fill:rgb(0%,0%,0%);fill-opacity:1;stroke-width:0.75;stroke-linecap:round;stroke-linejoin:round;stroke:rgb(0%,0%,0%);stroke-opacity:1;stroke-miterlimit:10;" d="M 310.636719 326.078125 C 310.636719 327.878906 307.9375 327.878906 307.9375 326.078125 C 307.9375 324.277344 310.636719 324.277344 310.636719 326.078125 "/>
<path style="fill-rule:nonzero;fill:rgb(0%,0%,0%);fill-opacity:1;stroke-width:0.75;stroke-linecap:round;stroke-linejoin:round;stroke:rgb(0%,0%,0%);stroke-opacity:1;stroke-miterlimit:10;" d="M 302.757812 318.105469 C 302.757812 319.90625 300.058594 319.90625 300.058594 318.105469 C 300.058594 316.308594 302.757812 316.308594 302.757812 318.105469 "/>
<path style="fill-rule:nonzero;fill:rgb(0%,0%,0%);fill-opacity:1;stroke-width:0.75;stroke-linecap:round;stroke-linejoin:round;stroke:rgb(0%,0%,0%);stroke-opacity:1;stroke-miterlimit:10;" d="M 281.285156 318.367188 C 281.285156 320.167969 278.585938 320.167969 278.585938 318.367188 C 278.585938 316.566406 281.285156 316.566406 281.285156 318.367188 "/>
<path style="fill-rule:nonzero;fill:rgb(0%,0%,0%);fill-opacity:1;stroke-width:0.75;stroke-linecap:round;stroke-linejoin:round;stroke:rgb(0%,0%,0%);stroke-opacity:1;stroke-miterlimit:10;" d="M 284.078125 303.234375 C 284.078125 305.03125 281.378906 305.03125 281.378906 303.234375 C 281.378906 301.433594 284.078125 301.433594 284.078125 303.234375 "/>
<path style="fill-rule:nonzero;fill:rgb(0%,0%,0%);fill-opacity:1;stroke-width:0.75;stroke-linecap:round;stroke-linejoin:round;stroke:rgb(0%,0%,0%);stroke-opacity:1;stroke-miterlimit:10;" d="M 267.609375 315.265625 C 267.609375 317.066406 264.910156 317.066406 264.910156 315.265625 C 264.910156 313.464844 267.609375 313.464844 267.609375 315.265625 "/>
<path style="fill-rule:nonzero;fill:rgb(0%,0%,0%);fill-opacity:1;stroke-width:0.75;stroke-linecap:round;stroke-linejoin:round;stroke:rgb(0%,0%,0%);stroke-opacity:1;stroke-miterlimit:10;" d="M 256.320312 306.917969 C 256.320312 308.71875 253.621094 308.71875 253.621094 306.917969 C 253.621094 305.117188 256.320312 305.117188 256.320312 306.917969 "/>
<path style="fill-rule:nonzero;fill:rgb(0%,0%,0%);fill-opacity:1;stroke-width:0.75;stroke-linecap:round;stroke-linejoin:round;stroke:rgb(0%,0%,0%);stroke-opacity:1;stroke-miterlimit:10;" d="M 241.933594 334 C 241.933594 335.800781 239.234375 335.800781 239.234375 334 C 239.234375 332.199219 241.933594 332.199219 241.933594 334 "/>
<path style="fill-rule:nonzero;fill:rgb(0%,0%,0%);fill-opacity:1;stroke-width:0.75;stroke-linecap:round;stroke-linejoin:round;stroke:rgb(0%,0%,0%);stroke-opacity:1;stroke-miterlimit:10;" d="M 255.5 330.660156 C 255.5 332.460938 252.800781 332.460938 252.800781 330.660156 C 252.800781 328.859375 255.5 328.859375 255.5 330.660156 "/>
<path style="fill-rule:nonzero;fill:rgb(0%,0%,0%);fill-opacity:1;stroke-width:0.75;stroke-linecap:round;stroke-linejoin:round;stroke:rgb(0%,0%,0%);stroke-opacity:1;stroke-miterlimit:10;" d="M 224.820312 325.585938 C 224.820312 327.386719 222.121094 327.386719 222.121094 325.585938 C 222.121094 323.785156 224.820312 323.785156 224.820312 325.585938 "/>
<path style="fill-rule:nonzero;fill:rgb(0%,0%,0%);fill-opacity:1;stroke-width:0.75;stroke-linecap:round;stroke-linejoin:round;stroke:rgb(0%,0%,0%);stroke-opacity:1;stroke-miterlimit:10;" d="M 222.171875 311.257812 C 222.171875 313.054688 219.472656 313.054688 219.472656 311.257812 C 219.472656 309.457031 222.171875 309.457031 222.171875 311.257812 "/>
<path style="fill-rule:nonzero;fill:rgb(0%,0%,0%);fill-opacity:1;stroke-width:0.75;stroke-linecap:round;stroke-linejoin:round;stroke:rgb(0%,0%,0%);stroke-opacity:1;stroke-miterlimit:10;" d="M 196.136719 315.023438 C 196.136719 316.824219 193.4375 316.824219 193.4375 315.023438 C 193.4375 313.222656 196.136719 313.222656 196.136719 315.023438 "/>
<path style="fill-rule:nonzero;fill:rgb(0%,0%,0%);fill-opacity:1;stroke-width:0.75;stroke-linecap:round;stroke-linejoin:round;stroke:rgb(0%,0%,0%);stroke-opacity:1;stroke-miterlimit:10;" d="M 210.050781 317.664062 C 210.050781 319.464844 207.347656 319.464844 207.347656 317.664062 C 207.347656 315.863281 210.050781 315.863281 210.050781 317.664062 "/>
<path style="fill-rule:nonzero;fill:rgb(0%,0%,0%);fill-opacity:1;stroke-width:0.75;stroke-linecap:round;stroke-linejoin:round;stroke:rgb(0%,0%,0%);stroke-opacity:1;stroke-miterlimit:10;" d="M 206.738281 310.738281 C 206.738281 312.539062 204.039062 312.539062 204.039062 310.738281 C 204.039062 308.9375 206.738281 308.9375 206.738281 310.738281 "/>
<path style="fill-rule:nonzero;fill:rgb(0%,0%,0%);fill-opacity:1;stroke-width:0.75;stroke-linecap:round;stroke-linejoin:round;stroke:rgb(0%,0%,0%);stroke-opacity:1;stroke-miterlimit:10;" d="M 175.355469 315.574219 C 175.355469 317.375 172.65625 317.375 172.65625 315.574219 C 172.65625 313.777344 175.355469 313.777344 175.355469 315.574219 "/>
<path style="fill-rule:nonzero;fill:rgb(0%,0%,0%);fill-opacity:1;stroke-width:0.75;stroke-linecap:round;stroke-linejoin:round;stroke:rgb(0%,0%,0%);stroke-opacity:1;stroke-miterlimit:10;" d="M 165.445312 311.058594 C 165.445312 312.859375 162.746094 312.859375 162.746094 311.058594 C 162.746094 309.257812 165.445312 309.257812 165.445312 311.058594 "/>
<path style="fill-rule:nonzero;fill:rgb(0%,0%,0%);fill-opacity:1;stroke-width:0.75;stroke-linecap:round;stroke-linejoin:round;stroke:rgb(0%,0%,0%);stroke-opacity:1;stroke-miterlimit:10;" d="M 184.832031 304.078125 C 184.832031 305.878906 182.132812 305.878906 182.132812 304.078125 C 182.132812 302.277344 184.832031 302.277344 184.832031 304.078125 "/>
<path style="fill-rule:nonzero;fill:rgb(0%,0%,0%);fill-opacity:1;stroke-width:0.75;stroke-linecap:round;stroke-linejoin:round;stroke:rgb(0%,0%,0%);stroke-opacity:1;stroke-miterlimit:10;" d="M 145.140625 293.960938 C 145.140625 295.761719 142.441406 295.761719 142.441406 293.960938 C 142.441406 292.164062 145.140625 292.164062 145.140625 293.960938 "/>
<path style="fill-rule:nonzero;fill:rgb(0%,0%,0%);fill-opacity:1;stroke-width:0.75;stroke-linecap:round;stroke-linejoin:round;stroke:rgb(0%,0%,0%);stroke-opacity:1;stroke-miterlimit:10;" d="M 162.738281 280.433594 C 162.738281 282.234375 160.039062 282.234375 160.039062 280.433594 C 160.039062 278.636719 162.738281 278.636719 162.738281 280.433594 "/>
<path style="fill-rule:nonzero;fill:rgb(0%,0%,0%);fill-opacity:1;stroke-width:0.75;stroke-linecap:round;stroke-linejoin:round;stroke:rgb(0%,0%,0%);stroke-opacity:1;stroke-miterlimit:10;" d="M 147.53125 285.570312 C 147.53125 287.371094 144.832031 287.371094 144.832031 285.570312 C 144.832031 283.773438 147.53125 283.773438 147.53125 285.570312 "/>
<path style="fill-rule:nonzero;fill:rgb(0%,0%,0%);fill-opacity:1;stroke-width:0.75;stroke-linecap:round;stroke-linejoin:round;stroke:rgb(0%,0%,0%);stroke-opacity:1;stroke-miterlimit:10;" d="M 123.144531 273.390625 C 123.144531 275.191406 120.445312 275.191406 120.445312 273.390625 C 120.445312 271.589844 123.144531 271.589844 123.144531 273.390625 "/>
<path style="fill-rule:nonzero;fill:rgb(0%,0%,0%);fill-opacity:1;stroke-width:0.75;stroke-linecap:round;stroke-linejoin:round;stroke:rgb(0%,0%,0%);stroke-opacity:1;stroke-miterlimit:10;" d="M 140.804688 265.894531 C 140.804688 267.695312 138.105469 267.695312 138.105469 265.894531 C 138.105469 264.09375 140.804688 264.09375 140.804688 265.894531 "/>
<path style="fill-rule:nonzero;fill:rgb(0%,0%,0%);fill-opacity:1;stroke-width:0.75;stroke-linecap:round;stroke-linejoin:round;stroke:rgb(0%,0%,0%);stroke-opacity:1;stroke-miterlimit:10;" d="M 139.378906 277.457031 C 139.378906 279.257812 136.679688 279.257812 136.679688 277.457031 C 136.679688 275.65625 139.378906 275.65625 139.378906 277.457031 "/>
<path style="fill-rule:nonzero;fill:rgb(0%,0%,0%);fill-opacity:1;stroke-width:0.75;stroke-linecap:round;stroke-linejoin:round;stroke:rgb(0%,0%,0%);stroke-opacity:1;stroke-miterlimit:10;" d="M 135.710938 270.324219 C 135.710938 272.125 133.011719 272.125 133.011719 270.324219 C 133.011719 268.527344 135.710938 268.527344 135.710938 270.324219 "/>
<path style="fill-rule:nonzero;fill:rgb(0%,0%,0%);fill-opacity:1;stroke-width:0.75;stroke-linecap:round;stroke-linejoin:round;stroke:rgb(0%,0%,0%);stroke-opacity:1;stroke-miterlimit:10;" d="M 129.871094 249.605469 C 129.871094 251.40625 127.171875 251.40625 127.171875 249.605469 C 127.171875 247.808594 129.871094 247.808594 129.871094 249.605469 "/>
<path style="fill-rule:nonzero;fill:rgb(0%,0%,0%);fill-opacity:1;stroke-width:0.75;stroke-linecap:round;stroke-linejoin:round;stroke:rgb(0%,0%,0%);stroke-opacity:1;stroke-miterlimit:10;" d="M 103.175781 251.085938 C 103.175781 252.886719 100.476562 252.886719 100.476562 251.085938 C 100.476562 249.289062 103.175781 249.289062 103.175781 251.085938 "/>
<path style="fill-rule:nonzero;fill:rgb(0%,0%,0%);fill-opacity:1;stroke-width:0.75;stroke-linecap:round;stroke-linejoin:round;stroke:rgb(0%,0%,0%);stroke-opacity:1;stroke-miterlimit:10;" d="M 105.699219 222.722656 C 105.699219 224.519531 103 224.519531 103 222.722656 C 103 220.921875 105.699219 220.921875 105.699219 222.722656 "/>
<path style="fill-rule:nonzero;fill:rgb(0%,0%,0%);fill-opacity:1;stroke-width:0.75;stroke-linecap:round;stroke-linejoin:round;stroke:rgb(0%,0%,0%);stroke-opacity:1;stroke-miterlimit:10;" d="M 130.339844 234.394531 C 130.339844 236.191406 127.640625 236.191406 127.640625 234.394531 C 127.640625 232.59375 130.339844 232.59375 130.339844 234.394531 "/>
<path style="fill-rule:nonzero;fill:rgb(0%,0%,0%);fill-opacity:1;stroke-width:0.75;stroke-linecap:round;stroke-linejoin:round;stroke:rgb(0%,0%,0%);stroke-opacity:1;stroke-miterlimit:10;" d="M 115.777344 212.335938 C 115.777344 214.136719 113.074219 214.136719 113.074219 212.335938 C 113.074219 210.535156 115.777344 210.535156 115.777344 212.335938 "/>
<path style="fill-rule:nonzero;fill:rgb(0%,0%,0%);fill-opacity:1;stroke-width:0.75;stroke-linecap:round;stroke-linejoin:round;stroke:rgb(0%,0%,0%);stroke-opacity:1;stroke-miterlimit:10;" d="M 133.503906 210.277344 C 133.503906 212.078125 130.800781 212.078125 130.800781 210.277344 C 130.800781 208.476562 133.503906 208.476562 133.503906 210.277344 "/>
<path style="fill-rule:nonzero;fill:rgb(0%,0%,0%);fill-opacity:1;stroke-width:0.75;stroke-linecap:round;stroke-linejoin:round;stroke:rgb(0%,0%,0%);stroke-opacity:1;stroke-miterlimit:10;" d="M 99.71875 184.699219 C 99.71875 186.5 97.019531 186.5 97.019531 184.699219 C 97.019531 182.898438 99.71875 182.898438 99.71875 184.699219 "/>
<path style="fill-rule:nonzero;fill:rgb(0%,0%,0%);fill-opacity:1;stroke-width:0.75;stroke-linecap:round;stroke-linejoin:round;stroke:rgb(0%,0%,0%);stroke-opacity:1;stroke-miterlimit:10;" d="M 109.808594 190.023438 C 109.808594 191.824219 107.109375 191.824219 107.109375 190.023438 C 107.109375 188.222656 109.808594 188.222656 109.808594 190.023438 "/>
<path style="fill-rule:nonzero;fill:rgb(0%,0%,0%);fill-opacity:1;stroke-width:0.75;stroke-linecap:round;stroke-linejoin:round;stroke:rgb(0%,0%,0%);stroke-opacity:1;stroke-miterlimit:10;" d="M 118.925781 175.65625 C 118.925781 177.453125 116.226562 177.453125 116.226562 175.65625 C 116.226562 173.855469 118.925781 173.855469 118.925781 175.65625 "/>
<path style="fill-rule:nonzero;fill:rgb(0%,0%,0%);fill-opacity:1;stroke-width:0.75;stroke-linecap:round;stroke-linejoin:round;stroke:rgb(0%,0%,0%);stroke-opacity:1;stroke-miterlimit:10;" d="M 124.6875 176.1875 C 124.6875 177.988281 121.988281 177.988281 121.988281 176.1875 C 121.988281 174.386719 124.6875 174.386719 124.6875 176.1875 "/>
<path style="fill-rule:nonzero;fill:rgb(0%,0%,0%);fill-opacity:1;stroke-width:0.75;stroke-linecap:round;stroke-linejoin:round;stroke:rgb(0%,0%,0%);stroke-opacity:1;stroke-miterlimit:10;" d="M 113.101562 145.789062 C 113.101562 147.589844 110.402344 147.589844 110.402344 145.789062 C 110.402344 143.988281 113.101562 143.988281 113.101562 145.789062 "/>
<path style="fill-rule:nonzero;fill:rgb(0%,0%,0%);fill-opacity:1;stroke-width:0.75;stroke-linecap:round;stroke-linejoin:round;stroke:rgb(0%,0%,0%);stroke-opacity:1;stroke-miterlimit:10;" d="M 147.765625 162.53125 C 147.765625 164.332031 145.0625 164.332031 145.0625 162.53125 C 145.0625 160.730469 147.765625 160.730469 147.765625 162.53125 "/>
<path style="fill-rule:nonzero;fill:rgb(0%,0%,0%);fill-opacity:1;stroke-width:0.75;stroke-linecap:round;stroke-linejoin:round;stroke:rgb(0%,0%,0%);stroke-opacity:1;stroke-miterlimit:10;" d="M 161.058594 138.484375 C 161.058594 140.285156 158.359375 140.285156 158.359375 138.484375 C 158.359375 136.683594 161.058594 136.683594 161.058594 138.484375 "/>
<path style="fill-rule:nonzero;fill:rgb(0%,0%,0%);fill-opacity:1;stroke-width:0.75;stroke-linecap:round;stroke-linejoin:round;stroke:rgb(0%,0%,0%);stroke-opacity:1;stroke-miterlimit:10;" d="M 168.011719 127.019531 C 168.011719 128.820312 165.3125 128.820312 165.3125 127.019531 C 165.3125 125.222656 168.011719 125.222656 168.011719 127.019531 "/>
<path style="fill-rule:nonzero;fill:rgb(0%,0%,0%);fill-opacity:1;stroke-width:0.75;stroke-linecap:round;stroke-linejoin:round;stroke:rgb(0%,0%,0%);stroke-opacity:1;stroke-miterlimit:10;" d="M 146.703125 112.039062 C 146.703125 113.839844 144.003906 113.839844 144.003906 112.039062 C 144.003906 110.238281 146.703125 110.238281 146.703125 112.039062 "/>
<path style="fill-rule:nonzero;fill:rgb(0%,0%,0%);fill-opacity:1;stroke-width:0.75;stroke-linecap:round;stroke-linejoin:round;stroke:rgb(0%,0%,0%);stroke-opacity:1;stroke-miterlimit:10;" d="M 150.871094 129.472656 C 150.871094 131.273438 148.171875 131.273438 148.171875 129.472656 C 148.171875 127.671875 150.871094 127.671875 150.871094 129.472656 "/>
<path style="fill-rule:nonzero;fill:rgb(0%,0%,0%);fill-opacity:1;stroke-width:0.75;stroke-linecap:round;stroke-linejoin:round;stroke:rgb(0%,0%,0%);stroke-opacity:1;stroke-miterlimit:10;" d="M 183.675781 112.691406 C 183.675781 114.492188 180.976562 114.492188 180.976562 112.691406 C 180.976562 110.890625 183.675781 110.890625 183.675781 112.691406 "/>
<path style="fill-rule:nonzero;fill:rgb(0%,0%,0%);fill-opacity:1;stroke-width:0.75;stroke-linecap:round;stroke-linejoin:round;stroke:rgb(0%,0%,0%);stroke-opacity:1;stroke-miterlimit:10;" d="M 167.507812 99.785156 C 167.507812 101.582031 164.808594 101.582031 164.808594 99.785156 C 164.808594 97.984375 167.507812 97.984375 167.507812 99.785156 "/>
<path style="fill-rule:nonzero;fill:rgb(0%,0%,0%);fill-opacity:1;stroke-width:0.75;stroke-linecap:round;stroke-linejoin:round;stroke:rgb(0%,0%,0%);stroke-opacity:1;stroke-miterlimit:10;" d="M 203.039062 109.300781 C 203.039062 111.101562 200.339844 111.101562 200.339844 109.300781 C 200.339844 107.5 203.039062 107.5 203.039062 109.300781 "/>
<path style="fill-rule:nonzero;fill:rgb(0%,0%,0%);fill-opacity:1;stroke-width:0.75;stroke-linecap:round;stroke-linejoin:round;stroke:rgb(0%,0%,0%);stroke-opacity:1;stroke-miterlimit:10;" d="M 196.753906 92.226562 C 196.753906 94.027344 194.050781 94.027344 194.050781 92.226562 C 194.050781 90.425781 196.753906 90.425781 196.753906 92.226562 "/>
<path style="fill-rule:nonzero;fill:rgb(0%,0%,0%);fill-opacity:1;stroke-width:0.75;stroke-linecap:round;stroke-linejoin:round;stroke:rgb(0%,0%,0%);stroke-opacity:1;stroke-miterlimit:10;" d="M 211.617188 109.75 C 211.617188 111.550781 208.917969 111.550781 208.917969 109.75 C 208.917969 107.949219 211.617188 107.949219 211.617188 109.75 "/>
<path style="fill-rule:nonzero;fill:rgb(0%,0%,0%);fill-opacity:1;stroke-width:0.75;stroke-linecap:round;stroke-linejoin:round;stroke:rgb(0%,0%,0%);stroke-opacity:1;stroke-miterlimit:10;" d="M 237.019531 107.59375 C 237.019531 109.390625 234.320312 109.390625 234.320312 107.59375 C 234.320312 105.792969 237.019531 105.792969 237.019531 107.59375 "/>
<path style="fill-rule:nonzero;fill:rgb(0%,0%,0%);fill-opacity:1;stroke-width:0.75;stroke-linecap:round;stroke-linejoin:round;stroke:rgb(0%,0%,0%);stroke-opacity:1;stroke-miterlimit:10;" d="M 247.355469 87.027344 C 247.355469 88.828125 244.65625 88.828125 244.65625 87.027344 C 244.65625 85.226562 247.355469 85.226562 247.355469 87.027344 "/>
<path style="fill-rule:nonzero;fill:rgb(0%,0%,0%);fill-opacity:1;stroke-width:0.75;stroke-linecap:round;stroke-linejoin:round;stroke:rgb(0%,0%,0%);stroke-opacity:1;stroke-miterlimit:10;" d="M 246.886719 93.261719 C 246.886719 95.0625 244.1875 95.0625 244.1875 93.261719 C 244.1875 91.460938 246.886719 91.460938 246.886719 93.261719 "/>
<path style="fill-rule:nonzero;fill:rgb(0%,0%,0%);fill-opacity:1;stroke-width:0.75;stroke-linecap:round;stroke-linejoin:round;stroke:rgb(0%,0%,0%);stroke-opacity:1;stroke-miterlimit:10;" d="M 276.332031 86.320312 C 276.332031 88.121094 273.632812 88.121094 273.632812 86.320312 C 273.632812 84.523438 276.332031 84.523438 276.332031 86.320312 "/>
<path style="fill-rule:nonzero;fill:rgb(0%,0%,0%);fill-opacity:1;stroke-width:0.75;stroke-linecap:round;stroke-linejoin:round;stroke:rgb(0%,0%,0%);stroke-opacity:1;stroke-miterlimit:10;" d="M 256.503906 96.824219 C 256.503906 98.625 253.800781 98.625 253.800781 96.824219 C 253.800781 95.023438 256.503906 95.023438 256.503906 96.824219 "/>
<path style="fill-rule:nonzero;fill:rgb(0%,0%,0%);fill-opacity:1;stroke-width:0.75;stroke-linecap:round;stroke-linejoin:round;stroke:rgb(0%,0%,0%);stroke-opacity:1;stroke-miterlimit:10;" d="M 298.984375 99.503906 C 298.984375 101.304688 296.28125 101.304688 296.28125 99.503906 C 296.28125 97.703125 298.984375 97.703125 298.984375 99.503906 "/>
<path style="fill-rule:nonzero;fill:rgb(0%,0%,0%);fill-opacity:1;stroke-width:0.75;stroke-linecap:round;stroke-linejoin:round;stroke:rgb(0%,0%,0%);stroke-opacity:1;stroke-miterlimit:10;" d="M 287.867188 72.800781 C 287.867188 74.601562 285.167969 74.601562 285.167969 72.800781 C 285.167969 71 287.867188 71 287.867188 72.800781 "/>
<path style="fill-rule:nonzero;fill:rgb(0%,0%,0%);fill-opacity:1;stroke-width:0.75;stroke-linecap:round;stroke-linejoin:round;stroke:rgb(0%,0%,0%);stroke-opacity:1;stroke-miterlimit:10;" d="M 316.175781 82.449219 C 316.175781 84.25 313.476562 84.25 313.476562 82.449219 C 313.476562 80.648438 316.175781 80.648438 316.175781 82.449219 "/>
<path style="fill-rule:nonzero;fill:rgb(0%,0%,0%);fill-opacity:1;stroke-width:0.75;stroke-linecap:round;stroke-linejoin:round;stroke:rgb(0%,0%,0%);stroke-opacity:1;stroke-miterlimit:10;" d="M 328.820312 95.574219 C 328.820312 97.375 326.117188 97.375 326.117188 95.574219 C 326.117188 93.773438 328.820312 93.773438 328.820312 95.574219 "/>
<path style="fill-rule:nonzero;fill:rgb(0%,0%,0%);fill-opacity:1;stroke-width:0.75;stroke-linecap:round;stroke-linejoin:round;stroke:rgb(0%,0%,0%);stroke-opacity:1;stroke-miterlimit:10;" d="M 351.882812 94.675781 C 351.882812 96.476562 349.183594 96.476562 349.183594 94.675781 C 349.183594 92.875 351.882812 92.875 351.882812 94.675781 "/>
<path style="fill-rule:nonzero;fill:rgb(0%,0%,0%);fill-opacity:1;stroke-width:0.75;stroke-linecap:round;stroke-linejoin:round;stroke:rgb(0%,0%,0%);stroke-opacity:1;stroke-miterlimit:10;" d="M 352.359375 96.554688 C 352.359375 98.355469 349.660156 98.355469 349.660156 96.554688 C 349.660156 94.753906 352.359375 94.753906 352.359375 96.554688 "/>
<path style="fill-rule:nonzero;fill:rgb(0%,0%,0%);fill-opacity:1;stroke-width:0.75;stroke-linecap:round;stroke-linejoin:round;stroke:rgb(0%,0%,0%);stroke-opacity:1;stroke-miterlimit:10;" d="M 349.183594 105.007812 C 349.183594 106.808594 346.484375 106.808594 346.484375 105.007812 C 346.484375 103.210938 349.183594 103.210938 349.183594 105.007812 "/>
<path style="fill-rule:nonzero;fill:rgb(0%,0%,0%);fill-opacity:1;stroke-width:0.75;stroke-linecap:round;stroke-linejoin:round;stroke:rgb(0%,0%,0%);stroke-opacity:1;stroke-miterlimit:10;" d="M 385.519531 97.191406 C 385.519531 98.992188 382.820312 98.992188 382.820312 97.191406 C 382.820312 95.390625 385.519531 95.390625 385.519531 97.191406 "/>
<path style="fill-rule:nonzero;fill:rgb(0%,0%,0%);fill-opacity:1;stroke-width:0.75;stroke-linecap:round;stroke-linejoin:round;stroke:rgb(0%,0%,0%);stroke-opacity:1;stroke-miterlimit:10;" d="M 369.4375 126.382812 C 369.4375 128.183594 366.738281 128.183594 366.738281 126.382812 C 366.738281 124.582031 369.4375 124.582031 369.4375 126.382812 "/>
<path style="fill-rule:nonzero;fill:rgb(0%,0%,0%);fill-opacity:1;stroke-width:0.75;stroke-linecap:round;stroke-linejoin:round;stroke:rgb(0%,0%,0%);stroke-opacity:1;stroke-miterlimit:10;" d="M 388.421875 142.992188 C 388.421875 144.792969 385.722656 144.792969 385.722656 142.992188 C 385.722656 141.191406 388.421875 141.191406 388.421875 142.992188 "/>
<path style="fill-rule:nonzero;fill:rgb(0%,0%,0%);fill-opacity:1;stroke-width:0.75;stroke-linecap:round;stroke-linejoin:round;stroke:rgb(0%,0%,0%);stroke-opacity:1;stroke-miterlimit:10;" d="M 413.191406 141.414062 C 413.191406 143.210938 410.492188 143.210938 410.492188 141.414062 C 410.492188 139.613281 413.191406 139.613281 413.191406 141.414062 "/>
<path style="fill-rule:nonzero;fill:rgb(0%,0%,0%);fill-opacity:1;stroke-width:0.75;stroke-linecap:round;stroke-linejoin:round;stroke:rgb(0%,0%,0%);stroke-opacity:1;stroke-miterlimit:10;" d="M 388.378906 129.574219 C 388.378906 131.375 385.675781 131.375 385.675781 129.574219 C 385.675781 127.773438 388.378906 127.773438 388.378906 129.574219 "/>
<path style="fill-rule:nonzero;fill:rgb(0%,0%,0%);fill-opacity:1;stroke-width:0.75;stroke-linecap:round;stroke-linejoin:round;stroke:rgb(0%,0%,0%);stroke-opacity:1;stroke-miterlimit:10;" d="M 416.140625 140.820312 C 416.140625 142.617188 413.441406 142.617188 413.441406 140.820312 C 413.441406 139.019531 416.140625 139.019531 416.140625 140.820312 "/>
<path style="fill-rule:nonzero;fill:rgb(0%,0%,0%);fill-opacity:1;stroke-width:0.75;stroke-linecap:round;stroke-linejoin:round;stroke:rgb(0%,0%,0%);stroke-opacity:1;stroke-miterlimit:10;" d="M 438.296875 159.023438 C 438.296875 160.824219 435.597656 160.824219 435.597656 159.023438 C 435.597656 157.222656 438.296875 157.222656 438.296875 159.023438 "/>
<path style="fill-rule:nonzero;fill:rgb(0%,0%,0%);fill-opacity:1;stroke-width:0.75;stroke-linecap:round;stroke-linejoin:round;stroke:rgb(0%,0%,0%);stroke-opacity:1;stroke-miterlimit:10;" d="M 437.84375 166.640625 C 437.84375 168.4375 435.140625 168.4375 435.140625 166.640625 C 435.140625 164.839844 437.84375 164.839844 437.84375 166.640625 "/>
<path style="fill-rule:nonzero;fill:rgb(0%,0%,0%);fill-opacity:1;stroke-width:0.75;stroke-linecap:round;stroke-linejoin:round;stroke:rgb(0%,0%,0%);stroke-opacity:1;stroke-miterlimit:10;" d="M 442.445312 197.824219 C 442.445312 199.625 439.742188 199.625 439.742188 197.824219 C 439.742188 196.023438 442.445312 196.023438 442.445312 197.824219 "/>
<path style="fill-rule:nonzero;fill:rgb(0%,0%,0%);fill-opacity:1;stroke-width:0.75;stroke-linecap:round;stroke-linejoin:round;stroke:rgb(0%,0%,0%);stroke-opacity:1;stroke-miterlimit:10;" d="M 426.410156 200.488281 C 426.410156 202.289062 423.710938 202.289062 423.710938 200.488281 C 423.710938 198.6875 426.410156 198.6875 426.410156 200.488281 "/>
<path style="fill-rule:nonzero;fill:rgb(0%,0%,0%);fill-opacity:1;stroke-width:0.75;stroke-linecap:round;stroke-linejoin:round;stroke:rgb(0%,0%,0%);stroke-opacity:1;stroke-miterlimit:10;" d="M 425.671875 204.34375 C 425.671875 206.140625 422.972656 206.140625 422.972656 204.34375 C 422.972656 202.542969 425.671875 202.542969 425.671875 204.34375 "/>
<path style="fill-rule:nonzero;fill:rgb(0%,0%,0%);fill-opacity:1;stroke-width:0.75;stroke-linecap:round;stroke-linejoin:round;stroke:rgb(0%,0%,0%);stroke-opacity:1;stroke-miterlimit:10;" d="M 428.222656 203.867188 C 428.222656 205.667969 425.523438 205.667969 425.523438 203.867188 C 425.523438 202.066406 428.222656 202.066406 428.222656 203.867188 "/>
<path style="fill-rule:nonzero;fill:rgb(0%,0%,0%);fill-opacity:1;stroke-width:0.75;stroke-linecap:round;stroke-linejoin:round;stroke:rgb(0%,0%,0%);stroke-opacity:1;stroke-miterlimit:10;" d="M 446.761719 225.378906 C 446.761719 227.179688 444.0625 227.179688 444.0625 225.378906 C 444.0625 223.578125 446.761719 223.578125 446.761719 225.378906 "/>
<path style="fill-rule:nonzero;fill:rgb(0%,0%,0%);fill-opacity:1;stroke-width:0.75;stroke-linecap:round;stroke-linejoin:round;stroke:rgb(0%,0%,0%);stroke-opacity:1;stroke-miterlimit:10;" d="M 450.078125 245.925781 C 450.078125 247.726562 447.378906 247.726562 447.378906 245.925781 C 447.378906 244.128906 450.078125 244.128906 450.078125 245.925781 "/>
<path style="fill-rule:nonzero;fill:rgb(0%,0%,0%);fill-opacity:1;stroke-width:0.75;stroke-linecap:round;stroke-linejoin:round;stroke:rgb(0%,0%,0%);stroke-opacity:1;stroke-miterlimit:10;" d="M 459.75 254.175781 C 459.75 255.976562 457.050781 255.976562 457.050781 254.175781 C 457.050781 252.375 459.75 252.375 459.75 254.175781 "/>
<path style="fill-rule:nonzero;fill:rgb(0%,0%,0%);fill-opacity:1;stroke-width:0.75;stroke-linecap:round;stroke-linejoin:round;stroke:rgb(0%,0%,0%);stroke-opacity:1;stroke-miterlimit:10;" d="M 457.054688 266.1875 C 457.054688 267.988281 454.355469 267.988281 454.355469 266.1875 C 454.355469 264.386719 457.054688 264.386719 457.054688 266.1875 "/>
<path style="fill-rule:nonzero;fill:rgb(0%,0%,0%);fill-opacity:1;stroke-width:0.75;stroke-linecap:round;stroke-linejoin:round;stroke:rgb(0%,0%,0%);stroke-opacity:1;stroke-miterlimit:10;" d="M 441.394531 287.421875 C 441.394531 289.222656 438.691406 289.222656 438.691406 287.421875 C 438.691406 285.621094 441.394531 285.621094 441.394531 287.421875 "/>
<path style="fill-rule:nonzero;fill:rgb(0%,0%,0%);fill-opacity:1;stroke-width:0.75;stroke-linecap:round;stroke-linejoin:round;stroke:rgb(0%,0%,0%);stroke-opacity:1;stroke-miterlimit:10;" d="M 414.800781 296.917969 C 414.800781 298.71875 412.101562 298.71875 412.101562 296.917969 C 412.101562 295.117188 414.800781 295.117188 414.800781 296.917969 "/>
<path style="fill-rule:nonzero;fill:rgb(0%,0%,0%);fill-opacity:1;stroke-width:0.75;stroke-linecap:round;stroke-linejoin:round;stroke:rgb(0%,0%,0%);stroke-opacity:1;stroke-miterlimit:10;" d="M 412.605469 316.597656 C 412.605469 318.398438 409.90625 318.398438 409.90625 316.597656 C 409.90625 314.800781 412.605469 314.800781 412.605469 316.597656 "/>
<path style="fill-rule:nonzero;fill:rgb(0%,0%,0%);fill-opacity:1;stroke-width:0.75;stroke-linecap:round;stroke-linejoin:round;stroke:rgb(0%,0%,0%);stroke-opacity:1;stroke-miterlimit:10;" d="M 409.160156 300.355469 C 409.160156 302.15625 406.460938 302.15625 406.460938 300.355469 C 406.460938 298.554688 409.160156 298.554688 409.160156 300.355469 "/>
<path style="fill-rule:nonzero;fill:rgb(0%,0%,0%);fill-opacity:1;stroke-width:0.75;stroke-linecap:round;stroke-linejoin:round;stroke:rgb(0%,0%,0%);stroke-opacity:1;stroke-miterlimit:10;" d="M 402.457031 306.589844 C 402.457031 308.390625 399.757812 308.390625 399.757812 306.589844 C 399.757812 304.789062 402.457031 304.789062 402.457031 306.589844 "/>
<path style="fill-rule:nonzero;fill:rgb(0%,0%,0%);fill-opacity:1;stroke-width:0.75;stroke-linecap:round;stroke-linejoin:round;stroke:rgb(0%,0%,0%);stroke-opacity:1;stroke-miterlimit:10;" d="M 411.136719 322.617188 C 411.136719 324.417969 408.4375 324.417969 408.4375 322.617188 C 408.4375 320.816406 411.136719 320.816406 411.136719 322.617188 "/>
<path style="fill-rule:nonzero;fill:rgb(0%,0%,0%);fill-opacity:1;stroke-width:0.75;stroke-linecap:round;stroke-linejoin:round;stroke:rgb(0%,0%,0%);stroke-opacity:1;stroke-miterlimit:10;" d="M 400.921875 333.585938 C 400.921875 335.386719 398.222656 335.386719 398.222656 333.585938 C 398.222656 331.785156 400.921875 331.785156 400.921875 333.585938 "/>
<path style="fill-rule:nonzero;fill:rgb(0%,0%,0%);fill-opacity:1;stroke-width:0.75;stroke-linecap:round;stroke-linejoin:round;stroke:rgb(0%,0%,0%);stroke-opacity:1;stroke-miterlimit:10;" d="M 393.835938 348.699219 C 393.835938 350.5 391.136719 350.5 391.136719 348.699219 C 391.136719 346.898438 393.835938 346.898438 393.835938 348.699219 "/>
<path style="fill-rule:nonzero;fill:rgb(0%,0%,0%);fill-opacity:1;stroke-width:0.75;stroke-linecap:round;stroke-linejoin:round;stroke:rgb(0%,0%,0%);stroke-opacity:1;stroke-miterlimit:10;" d="M 377.402344 371.625 C 377.402344 373.425781 374.703125 373.425781 374.703125 371.625 C 374.703125 369.824219 377.402344 369.824219 377.402344 371.625 "/>
<path style="fill-rule:nonzero;fill:rgb(0%,0%,0%);fill-opacity:1;stroke-width:0.75;stroke-linecap:round;stroke-linejoin:round;stroke:rgb(0%,0%,0%);stroke-opacity:1;stroke-miterlimit:10;" d="M 349.28125 371.230469 C 349.28125 373.03125 346.582031 373.03125 346.582031 371.230469 C 346.582031 369.429688 349.28125 369.429688 349.28125 371.230469 "/>
<path style="fill-rule:nonzero;fill:rgb(0%,0%,0%);fill-opacity:1;stroke-width:0.75;stroke-linecap:round;stroke-linejoin:round;stroke:rgb(0%,0%,0%);stroke-opacity:1;stroke-miterlimit:10;" d="M 333.96875 358.058594 C 333.96875 359.859375 331.269531 359.859375 331.269531 358.058594 C 331.269531 356.257812 333.96875 356.257812 333.96875 358.058594 "/>
<path style="fill-rule:nonzero;fill:rgb(0%,0%,0%);fill-opacity:1;stroke-width:0.75;stroke-linecap:round;stroke-linejoin:round;stroke:rgb(0%,0%,0%);stroke-opacity:1;stroke-miterlimit:10;" d="M 333.738281 381.46875 C 333.738281 383.269531 331.039062 383.269531 331.039062 381.46875 C 331.039062 379.667969 333.738281 379.667969 333.738281 381.46875 "/>
<path style="fill-rule:nonzero;fill:rgb(0%,0%,0%);fill-opacity:1;stroke-width:0.75;stroke-linecap:round;stroke-linejoin:round;stroke:rgb(0%,0%,0%);stroke-opacity:1;stroke-miterlimit:10;" d="M 330.152344 384.738281 C 330.152344 386.539062 327.453125 386.539062 327.453125 384.738281 C 327.453125 382.941406 330.152344 382.941406 330.152344 384.738281 "/>
<path style="fill-rule:nonzero;fill:rgb(0%,0%,0%);fill-opacity:1;stroke-width:0.75;stroke-linecap:round;stroke-linejoin:round;stroke:rgb(0%,0%,0%);stroke-opacity:1;stroke-miterlimit:10;" d="M 294.738281 381.5 C 294.738281 383.300781 292.039062 383.300781 292.039062 381.5 C 292.039062 379.699219 294.738281 379.699219 294.738281 381.5 "/>
<path style="fill-rule:nonzero;fill:rgb(0%,0%,0%);fill-opacity:1;stroke-width:0.75;stroke-linecap:round;stroke-linejoin:round;stroke:rgb(0%,0%,0%);stroke-opacity:1;stroke-miterlimit:10;" d="M 311.066406 392.371094 C 311.066406 394.167969 308.367188 394.167969 308.367188 392.371094 C 308.367188 390.570312 311.066406 390.570312 311.066406 392.371094 "/>
<path style="fill-rule:nonzero;fill:rgb(0%,0%,0%);fill-opacity:1;stroke-width:0.75;stroke-linecap:round;stroke-linejoin:round;stroke:rgb(0%,0%,0%);stroke-opacity:1;stroke-miterlimit:10;" d="M 297.433594 413.398438 C 297.433594 415.199219 294.730469 415.199219 294.730469 413.398438 C 294.730469 411.601562 297.433594 411.601562 297.433594 413.398438 "/>
<path style="fill-rule:nonzero;fill:rgb(0%,0%,0%);fill-opacity:1;stroke-width:0.75;stroke-linecap:round;stroke-linejoin:round;stroke:rgb(0%,0%,0%);stroke-opacity:1;stroke-miterlimit:10;" d="M 267.355469 395.449219 C 267.355469 397.246094 264.65625 397.246094 264.65625 395.449219 C 264.65625 393.648438 267.355469 393.648438 267.355469 395.449219 "/>
<path style="fill-rule:nonzero;fill:rgb(0%,0%,0%);fill-opacity:1;stroke-width:0.75;stroke-linecap:round;stroke-linejoin:round;stroke:rgb(0%,0%,0%);stroke-opacity:1;stroke-miterlimit:10;" d="M 264.082031 416.800781 C 264.082031 418.601562 261.382812 418.601562 261.382812 416.800781 C 261.382812 415 264.082031 415 264.082031 416.800781 "/>
<path style="fill-rule:nonzero;fill:rgb(0%,0%,0%);fill-opacity:1;stroke-width:0.75;stroke-linecap:round;stroke-linejoin:round;stroke:rgb(0%,0%,0%);stroke-opacity:1;stroke-miterlimit:10;" d="M 244.152344 414.882812 C 244.152344 416.683594 241.453125 416.683594 241.453125 414.882812 C 241.453125 413.082031 244.152344 413.082031 244.152344 414.882812 "/>
<path style="fill-rule:nonzero;fill:rgb(0%,0%,0%);fill-opacity:1;stroke-width:0.75;stroke-linecap:round;stroke-linejoin:round;stroke:rgb(0%,0%,0%);stroke-opacity:1;stroke-miterlimit:10;" d="M 212.660156 402.796875 C 212.660156 404.597656 209.957031 404.597656 209.957031 402.796875 C 209.957031 400.996094 212.660156 400.996094 212.660156 402.796875 "/>
<path style="fill-rule:nonzero;fill:rgb(0%,0%,0%);fill-opacity:1;stroke-width:0.75;stroke-linecap:round;stroke-linejoin:round;stroke:rgb(0%,0%,0%);stroke-opacity:1;stroke-miterlimit:10;" d="M 212.449219 394.679688 C 212.449219 396.480469 209.75 396.480469 209.75 394.679688 C 209.75 392.882812 212.449219 392.882812 212.449219 394.679688 "/>
<path style="fill-rule:nonzero;fill:rgb(0%,0%,0%);fill-opacity:1;stroke-width:0.75;stroke-linecap:round;stroke-linejoin:round;stroke:rgb(0%,0%,0%);stroke-opacity:1;stroke-miterlimit:10;" d="M 193.503906 409.542969 C 193.503906 411.34375 190.800781 411.34375 190.800781 409.542969 C 190.800781 407.742188 193.503906 407.742188 193.503906 409.542969 "/>
<path style="fill-rule:nonzero;fill:rgb(0%,0%,0%);fill-opacity:1;stroke-width:0.75;stroke-linecap:round;stroke-linejoin:round;stroke:rgb(0%,0%,0%);stroke-opacity:1;stroke-miterlimit:10;" d="M 165.238281 378.171875 C 165.238281 379.972656 162.539062 379.972656 162.539062 378.171875 C 162.539062 376.375 165.238281 376.375 165.238281 378.171875 "/>
<path style="fill-rule:nonzero;fill:rgb(0%,0%,0%);fill-opacity:1;stroke-width:0.75;stroke-linecap:round;stroke-linejoin:round;stroke:rgb(0%,0%,0%);stroke-opacity:1;stroke-miterlimit:10;" d="M 168.792969 373.941406 C 168.792969 375.742188 166.09375 375.742188 166.09375 373.941406 C 166.09375 372.140625 168.792969 372.140625 168.792969 373.941406 "/>
<path style="fill-rule:nonzero;fill:rgb(0%,0%,0%);fill-opacity:1;stroke-width:0.75;stroke-linecap:round;stroke-linejoin:round;stroke:rgb(0%,0%,0%);stroke-opacity:1;stroke-miterlimit:10;" d="M 122.511719 391.988281 C 122.511719 393.785156 119.8125 393.785156 119.8125 391.988281 C 119.8125 390.1875 122.511719 390.1875 122.511719 391.988281 "/>
<path style="fill-rule:nonzero;fill:rgb(0%,0%,0%);fill-opacity:1;stroke-width:0.75;stroke-linecap:round;stroke-linejoin:round;stroke:rgb(0%,0%,0%);stroke-opacity:1;stroke-miterlimit:10;" d="M 143.199219 359.6875 C 143.199219 361.488281 140.5 361.488281 140.5 359.6875 C 140.5 357.886719 143.199219 357.886719 143.199219 359.6875 "/>
<path style="fill-rule:nonzero;fill:rgb(0%,0%,0%);fill-opacity:1;stroke-width:0.75;stroke-linecap:round;stroke-linejoin:round;stroke:rgb(0%,0%,0%);stroke-opacity:1;stroke-miterlimit:10;" d="M 126.386719 362.710938 C 126.386719 364.511719 123.6875 364.511719 123.6875 362.710938 C 123.6875 360.910156 126.386719 360.910156 126.386719 362.710938 "/>
<path style="fill-rule:nonzero;fill:rgb(0%,0%,0%);fill-opacity:1;stroke-width:0.75;stroke-linecap:round;stroke-linejoin:round;stroke:rgb(0%,0%,0%);stroke-opacity:1;stroke-miterlimit:10;" d="M 86.816406 341.117188 C 86.816406 342.917969 84.117188 342.917969 84.117188 341.117188 C 84.117188 339.316406 86.816406 339.316406 86.816406 341.117188 "/>
<path style="fill-rule:nonzero;fill:rgb(0%,0%,0%);fill-opacity:1;stroke-width:0.75;stroke-linecap:round;stroke-linejoin:round;stroke:rgb(0%,0%,0%);stroke-opacity:1;stroke-miterlimit:10;" d="M 75.75 331.003906 C 75.75 332.800781 73.050781 332.800781 73.050781 331.003906 C 73.050781 329.203125 75.75 329.203125 75.75 331.003906 "/>
<path style="fill:none;stroke-width:0.75;stroke-linecap:round;stroke-linejoin:round;stroke:rgb(0%,0%,0%);stroke-opacity:1;stroke-miterlimit:10;" d="M 59.039062 430.558594 L 473.761719 430.558594 L 473.761719 59.039062 L 59.039062 59.039062 L 59.039062 430.558594 "/>
<path style="fill:none;stroke-width:0.75;stroke-linecap:round;stroke-linejoin:round;stroke:rgb(100%,0%,0%);stroke-opacity:1;stroke-miterlimit:10;" d="M 196.96875 209.832031 C 196.96875 213.433594 191.566406 213.433594 191.566406 209.832031 C 191.566406 206.234375 196.96875 206.234375 196.96875 209.832031 "/>
<path style="fill:none;stroke-width:0.75;stroke-linecap:round;stroke-linejoin:round;stroke:rgb(100%,0%,0%);stroke-opacity:1;stroke-miterlimit:10;" d="M 185.027344 112.691406 C 185.027344 116.289062 179.625 116.289062 179.625 112.691406 C 179.625 109.089844 185.027344 109.089844 185.027344 112.691406 "/>
<path style="fill:none;stroke-width:0.75;stroke-linecap:round;stroke-linejoin:round;stroke:rgb(100%,0%,0%);stroke-opacity:1;stroke-dasharray:3,3;stroke-miterlimit:10;" d="M 194.265625 209.832031 L 182.328125 112.691406 "/>
<path style="fill:none;stroke-width:0.75;stroke-linecap:round;stroke-linejoin:round;stroke:rgb(0%,0%,100%);stroke-opacity:1;stroke-miterlimit:10;" d="M 208.433594 201.027344 L 209.734375 197.59375 L 211.382812 194.195312 L 213.390625 190.859375 L 215.746094 187.609375 L 218.449219 184.472656 L 221.492188 181.472656 L 224.863281 178.636719 L 228.554688 175.988281 L 232.546875 173.550781 L 236.824219 171.351562 L 241.367188 169.410156 L 246.152344 167.75 L 251.15625 166.386719 L 256.351562 165.339844 L 261.707031 164.628906 L 267.195312 164.265625 L 272.78125 164.261719 L 278.433594 164.632812 L 284.117188 165.378906 L 289.789062 166.511719 L 295.421875 168.03125 L 300.972656 169.941406 L 306.402344 172.234375 L 311.679688 174.914062 L 316.757812 177.964844 L 321.601562 181.382812 L 326.179688 185.15625 L 330.449219 189.265625 L 334.378906 193.691406 L 337.9375 198.421875 L 341.085938 203.429688 L 343.804688 208.6875 L 346.058594 214.171875 L 347.828125 219.851562 L 349.085938 225.699219 L 349.8125 231.679688 L 349.996094 237.757812 L 349.621094 243.898438 L 348.675781 250.066406 L 347.152344 256.226562 L 345.050781 262.332031 L 342.371094 268.351562 L 339.117188 274.246094 L 335.296875 279.972656 L 330.917969 285.496094 L 326.003906 290.777344 L 320.566406 295.777344 L 314.628906 300.460938 L 308.21875 304.796875 L 301.367188 308.746094 L 294.105469 312.277344 L 286.46875 315.367188 L 278.496094 317.980469 L 270.234375 320.097656 L 261.71875 321.695312 L 253.007812 322.753906 L 244.136719 323.253906 L 235.167969 323.183594 L 226.148438 322.539062 L 217.128906 321.304688 L 208.167969 319.480469 L 199.320312 317.070312 L 190.636719 314.074219 L 182.175781 310.5 L 173.992188 306.359375 L 166.136719 301.667969 L 158.664062 296.445312 L 151.625 290.710938 L 145.070312 284.492188 L 139.042969 277.820312 L 133.59375 270.71875 L 128.757812 263.234375 L 124.578125 255.398438 L 121.089844 247.25 L 118.320312 238.835938 L 116.304688 230.203125 L 115.0625 221.398438 L 114.613281 212.46875 L 114.972656 203.464844 L 116.152344 194.441406 L 118.15625 185.449219 L 120.984375 176.542969 L 124.632812 167.777344 L 129.09375 159.207031 L 134.355469 150.878906 L 140.394531 142.851562 L 147.1875 135.175781 L 154.707031 127.902344 L 162.917969 121.078125 L 171.78125 114.75 "/>
</g>
</svg>
